<svg width="209" height="267" viewBox="0 0 209 267" fill="none" xmlns="http://www.w3.org/2000/svg">
<g filter="url(#filter0_d)">
<path d="M20.0212 40H142.945C153.453 40.0961 161.78 48.455 161.681 58.6394L161.78 228.316C161.879 238.404 153.552 246.763 143.143 246.955H20.1204C16.6508 246.859 13.8751 244.169 13.8751 240.806L13.7759 46.2452C13.6768 42.7863 16.5516 40.0961 20.0212 40Z" fill="#B20616"/>
<path d="M118.262 67.3826H55.2134C52.6359 67.1904 50.6533 64.9806 50.8516 62.4826C51.0498 60.1768 52.9333 58.3513 55.2134 58.2552H118.262C120.839 58.4474 122.822 60.6572 122.624 63.1552C122.524 65.461 120.641 67.1904 118.262 67.3826Z" fill="#F4DB71"/>
<path d="M118.261 81.9868H55.2134C52.6359 81.7947 50.6533 79.5849 50.8516 77.0868C51.0498 74.7809 52.9333 72.9555 55.2134 72.8594H118.261C120.839 72.8594 123.02 74.877 123.02 77.4711C122.921 79.9692 120.839 81.9868 118.261 81.9868Z" fill="#F4DB71"/>
<path d="M86.7375 98.5122C61.6571 98.5122 41.4341 118.112 41.335 142.421C41.335 166.729 61.5579 186.329 86.6384 186.425C111.719 186.425 131.942 166.825 132.041 142.517C132.041 142.517 132.041 142.517 132.041 142.421C132.041 118.209 111.818 98.6083 86.7375 98.5122ZM122.722 138.001H108.646C108.447 128.585 106.267 119.265 102.301 110.714C113.404 115.903 121.136 126.183 122.722 138.001ZM86.8366 177.586C81.9791 177.586 74.9408 165.768 74.0486 146.84H99.7238C98.6334 165.768 91.6941 177.586 86.8366 177.586ZM73.9494 138.097C74.8416 119.169 81.7809 107.352 86.7375 107.352C91.6941 107.352 98.6334 119.169 99.5255 138.097H73.9494ZM71.2729 110.81C67.2085 119.362 65.1267 128.681 64.9284 138.097H50.9508C52.4378 126.183 60.1701 115.903 71.2729 110.81ZM50.9508 146.84H64.9284C65.1267 156.256 67.3076 165.576 71.372 174.127C60.1701 169.035 52.4378 158.754 50.9508 146.84ZM102.301 174.223C106.267 165.576 108.447 156.352 108.646 146.84H122.623C121.136 158.754 113.503 169.035 102.301 174.223Z" fill="#F4DB71"/>
<path d="M77.6174 211.982H96.0559C98.6334 211.982 100.616 214 100.616 216.402V216.498V225.626C100.715 228.124 98.7325 230.141 96.1551 230.238H96.0559H77.6174C75.0399 230.238 73.0573 228.22 73.0573 225.818V225.722V216.594C72.9581 214.096 74.9408 212.078 77.5182 211.982H77.6174Z" fill="#F4DB71"/>
</g>
<defs>
<filter id="filter0_d" x="0.773438" y="0" width="208.008" height="266.955" filterUnits="userSpaceOnUse" color-interpolation-filters="sRGB">
<feFlood flood-opacity="0" result="BackgroundImageFix"/>
<feColorMatrix in="SourceAlpha" type="matrix" values="0 0 0 0 0 0 0 0 0 0 0 0 0 0 0 0 0 0 127 0"/>
<feOffset dx="17" dy="-10"/>
<feGaussianBlur stdDeviation="15"/>
<feColorMatrix type="matrix" values="0 0 0 0 0.233333 0 0 0 0 0.153611 0 0 0 0 0.153611 0 0 0 0.15 0"/>
<feBlend mode="normal" in2="BackgroundImageFix" result="effect1_dropShadow"/>
<feBlend mode="normal" in="SourceGraphic" in2="effect1_dropShadow" result="shape"/>
</filter>
</defs>
</svg>
