<svg width="306" height="214" viewBox="0 0 306 214" fill="none" xmlns="http://www.w3.org/2000/svg">
<g filter="url(#filter0_d)">
<path d="M257.553 28.3127H32.4844C26.9615 28.3127 22.4844 32.7899 22.4844 38.3127V171.953C22.4844 177.476 26.9615 181.953 32.4844 181.953H257.553C263.076 181.953 267.553 177.476 267.553 171.953V38.3127C267.553 32.7899 263.076 28.3127 257.553 28.3127Z" fill="#F8F8F8"/>
<path d="M188.759 98.0197H187.393V79.9054L188.759 80.2848V98.0197Z" fill="#E8C513"/>
<path d="M189.346 88.3464H186.71V106.556H189.346V88.3464Z" fill="#E8C513"/>
<path d="M168.16 109.685C155.369 118.6 138.185 118.6 125.395 109.685V84.4578H168.16V109.685Z" fill="#325487"/>
<path d="M146.874 94.9852L104.694 80.1902L146.874 65.3951L189.053 80.1902L146.874 94.9852Z" fill="#325487"/>
<path d="M216.902 73.9492L217.087 74.4136L217.676 74.1789L217.31 73.6608L216.902 73.9492ZM216.902 73.9492C217.087 74.4136 217.087 74.4137 217.087 74.4138L217.086 74.4139L217.085 74.4143L217.082 74.4155L217.073 74.4192L217.04 74.4318C217.011 74.4424 216.971 74.4574 216.919 74.4757C216.815 74.5124 216.664 74.5627 216.474 74.6194C216.095 74.7328 215.556 74.8724 214.909 74.9797C213.621 75.1936 211.879 75.2843 210.121 74.7589C208.362 74.2333 206.977 73.209 206.039 72.33C205.568 71.8889 205.205 71.4797 204.959 71.1793C204.835 71.029 204.741 70.9055 204.676 70.8183C204.644 70.7747 204.619 70.7401 204.602 70.7158L204.582 70.6872L204.576 70.6789L204.574 70.6762L204.574 70.6753L204.573 70.675C204.573 70.6748 204.573 70.6747 204.987 70.3945M216.902 73.9492C217.31 73.6608 217.31 73.6607 217.31 73.6605L217.31 73.6602L217.309 73.6594L217.307 73.6568L217.302 73.6487L217.281 73.6204C217.263 73.5963 217.238 73.562 217.204 73.5186C217.138 73.4319 217.041 73.3089 216.914 73.1591C216.662 72.8598 216.291 72.4517 215.816 72.0117C214.87 71.1355 213.487 70.1119 211.772 69.5859L211.772 69.5858L211.769 69.5848C210.01 69.0594 208.268 69.1501 206.98 69.364C206.333 69.4713 205.794 69.611 205.415 69.7243C205.225 69.781 205.075 69.8313 204.97 69.868C204.918 69.8863 204.878 69.9013 204.849 69.9119L204.816 69.9245L204.807 69.9282L204.804 69.9294L204.803 69.9298L204.803 69.9299C204.802 69.93 204.802 69.9301 204.987 70.3945M204.987 70.3945L204.573 70.6747L204.225 70.1601L204.802 69.9301L204.987 70.3945Z" fill="#E8C513" stroke="#E8C513"/>
<path d="M218.17 72.2157L218.044 72.6995L218.625 72.8509L218.669 72.2524L218.17 72.2157ZM218.17 72.2157C218.669 72.2524 218.669 72.2522 218.669 72.252L218.669 72.2516L218.669 72.2505L218.669 72.2473L218.67 72.2372L218.672 72.2023C218.673 72.1726 218.675 72.1302 218.677 72.0761C218.68 71.968 218.682 71.8131 218.678 71.6198C218.669 71.2335 218.636 70.6913 218.536 70.0606C218.337 68.8041 217.87 67.1676 216.783 65.7164C215.7 64.2704 214.267 63.3181 213.122 62.7299C212.547 62.4345 212.038 62.2276 211.671 62.0939C211.487 62.027 211.339 61.9783 211.235 61.946C211.183 61.9298 211.142 61.9177 211.113 61.9094L211.079 61.8999L211.07 61.8972L211.067 61.8964L211.066 61.8962L211.065 61.896C211.065 61.896 211.065 61.896 210.936 62.379M218.17 72.2157C218.044 72.6995 218.044 72.6995 218.043 72.6995L218.043 72.6994L218.042 72.6991L218.039 72.6983L218.029 72.6956L217.995 72.6861C217.966 72.6779 217.924 72.6658 217.871 72.6497C217.764 72.6173 217.613 72.5687 217.426 72.5018C217.052 72.3683 216.535 72.1613 215.954 71.8657C214.799 71.2782 213.362 70.325 212.32 68.8742C211.235 67.424 210.769 65.7894 210.57 64.5341C210.47 63.9034 210.437 63.3613 210.428 62.9749C210.424 62.7816 210.426 62.6267 210.429 62.5186C210.431 62.4646 210.433 62.4222 210.434 62.3924L210.436 62.3575L210.437 62.3474L210.437 62.3442L210.437 62.3431L210.437 62.3427C210.437 62.3425 210.437 62.3424 210.936 62.379M210.936 62.379L211.065 61.896L210.482 61.7401L210.437 62.3424L210.936 62.379Z" fill="#E8C513" stroke="#E8C513"/>
<path d="M227.795 82.6263L227.911 83.1128L228.519 82.9688L228.245 82.4071L227.795 82.6263ZM227.795 82.6263C227.911 83.1128 227.91 83.1128 227.91 83.1129L227.91 83.113L227.909 83.1132L227.906 83.1139L227.896 83.1162L227.861 83.1239C227.831 83.1303 227.789 83.1392 227.735 83.1497C227.626 83.1708 227.47 83.1987 227.274 83.227C226.882 83.2837 226.329 83.3428 225.676 83.3535C224.377 83.3749 222.653 83.2055 221.026 82.4159C219.361 81.6285 218.135 80.4113 217.331 79.4047C216.927 78.8994 216.625 78.4421 216.423 78.1094C216.322 77.9429 216.245 77.8072 216.194 77.7117C216.168 77.664 216.148 77.6263 216.135 77.5998L216.119 77.5686L216.114 77.5596L216.113 77.5568L216.112 77.5558L216.112 77.5554C216.112 77.5552 216.112 77.5551 216.562 77.3359M227.795 82.6263C228.245 82.4071 228.245 82.407 228.245 82.4068L228.244 82.4064L228.244 82.4054L228.242 82.4026L228.238 82.3936L228.222 82.3624C228.209 82.3359 228.189 82.2982 228.163 82.2505C228.111 82.155 228.035 82.0193 227.934 81.8528C227.732 81.5201 227.43 81.0628 227.026 80.5575C226.221 79.5504 224.994 78.3325 223.328 77.5452L223.328 77.5451L223.323 77.5427C221.7 76.7983 219.981 76.629 218.685 76.6396C218.034 76.645 217.482 76.6959 217.091 76.7457C216.896 76.7706 216.74 76.7953 216.632 76.8141C216.578 76.8235 216.536 76.8314 216.506 76.8371L216.472 76.8439L216.462 76.8459L216.459 76.8466L216.458 76.8468L216.458 76.8469C216.457 76.8469 216.457 76.8469 216.562 77.3359M216.562 77.3359L216.112 77.5551L215.832 76.9803L216.457 76.8469L216.562 77.3359Z" fill="#E8C513" stroke="#E8C513"/>
<path d="M229.403 81.0613C229.894 81.1598 229.894 81.1596 229.894 81.1595L229.894 81.1591L229.894 81.158L229.895 81.155L229.896 81.1452L229.903 81.1114C229.908 81.0825 229.915 81.0411 229.924 80.9882C229.94 80.8825 229.962 80.7304 229.983 80.5397C230.025 80.1585 230.063 79.6204 230.052 78.9859C230.03 77.7223 229.81 76.0472 228.997 74.4671L228.997 74.4671L228.992 74.4572C228.134 72.8791 226.857 71.7311 225.812 70.9827C225.287 70.6068 224.814 70.3274 224.471 70.1412C224.299 70.048 224.159 69.9779 224.061 69.9305C224.012 69.9069 223.973 69.8888 223.946 69.8764L223.914 69.862L223.905 69.858L223.902 69.8567L223.902 69.8563L223.901 69.8561C223.901 69.8561 223.901 69.856 223.702 70.3146M229.403 81.0613C229.204 81.5199 229.204 81.5198 229.204 81.5198L229.203 81.5196L229.203 81.5192L229.2 81.5179L229.191 81.5139L229.159 81.4995C229.132 81.4871 229.093 81.469 229.044 81.4453C228.946 81.398 228.806 81.3279 228.634 81.2347C228.291 81.0485 227.818 80.769 227.293 80.3932C226.248 79.6448 224.971 78.4968 224.113 76.9187L224.108 76.9088L224.108 76.9088C223.295 75.3287 223.075 73.6535 223.053 72.39C223.042 71.7555 223.08 71.2174 223.122 70.8362C223.143 70.6454 223.165 70.4934 223.181 70.3877C223.19 70.3348 223.197 70.2934 223.202 70.2645L223.209 70.2306L223.21 70.2209L223.211 70.2179L223.211 70.2168L223.211 70.2164C223.211 70.2163 223.211 70.2161 223.702 70.3146M229.403 81.0613L229.894 81.1598L229.772 81.7665L229.204 81.5199L229.403 81.0613ZM223.702 70.3146L223.211 70.2161L223.333 69.6093L223.901 69.856L223.702 70.3146Z" fill="#E8C513" stroke="#E8C513"/>
<path d="M234.773 94.9428L234.727 95.4407L235.345 95.4978L235.269 94.882L234.773 94.9428ZM234.773 94.9428C234.727 95.4407 234.727 95.4407 234.727 95.4406L234.726 95.4406L234.725 95.4405L234.722 95.4402L234.712 95.4392L234.677 95.4354C234.647 95.4321 234.604 95.427 234.549 95.4197C234.439 95.4053 234.283 95.3821 234.087 95.3471C233.698 95.277 233.153 95.1589 232.529 94.9658C231.287 94.5814 229.698 93.8904 228.389 92.6621C227.079 91.4339 226.3 89.9107 225.848 88.7123C225.621 88.1106 225.474 87.5837 225.384 87.2055C225.339 87.0163 225.308 86.8637 225.287 86.7571C225.277 86.7038 225.27 86.6619 225.265 86.6326L225.26 86.5981L225.258 86.5882L225.258 86.5852L225.257 86.5841L225.257 86.5837C225.257 86.5835 225.257 86.5834 225.752 86.5106M234.773 94.9428C235.269 94.882 235.269 94.8818 235.269 94.8816L235.269 94.8812L235.269 94.8801L235.269 94.8769L235.267 94.8668L235.262 94.832C235.258 94.8024 235.252 94.7603 235.243 94.7067C235.225 94.5995 235.197 94.4463 235.155 94.2564C235.071 93.8769 234.932 93.3484 234.71 92.7449C234.269 91.5432 233.488 90.0178 232.133 88.7884C230.824 87.5619 229.237 86.8718 227.995 86.4876C227.371 86.2945 226.827 86.1764 226.437 86.1063C226.242 86.0713 226.085 86.0482 225.976 86.0337C225.921 86.0264 225.878 86.0213 225.848 86.018L225.813 86.0142L225.803 86.0132L225.8 86.0129L225.799 86.0128L225.798 86.0128C225.798 86.0128 225.798 86.0127 225.752 86.5106M225.752 86.5106L225.798 86.0127L225.165 85.9542L225.257 86.5834L225.752 86.5106Z" fill="#E8C513" stroke="#E8C513"/>
<path d="M236.73 93.7918L236.4 94.1677L236.85 94.5626L237.159 94.0493L236.73 93.7918ZM236.73 93.7918C237.159 94.0493 237.159 94.0491 237.159 94.049L237.159 94.0486L237.16 94.0477L237.161 94.045L237.166 94.0364L237.184 94.0064C237.198 93.9808 237.219 93.944 237.245 93.8968C237.296 93.8024 237.368 93.6659 237.452 93.4925C237.619 93.1461 237.835 92.6505 238.034 92.0476C238.432 90.847 238.772 89.1921 238.501 87.433C238.228 85.6686 237.37 84.1869 236.598 83.1585C236.21 82.6418 235.839 82.2326 235.563 81.9514C235.425 81.8107 235.311 81.7016 235.23 81.6268C235.19 81.5894 235.157 81.5605 235.135 81.5404L235.108 81.517L235.1 81.5103L235.098 81.5083L235.097 81.5076L235.097 81.5073C235.097 81.5072 235.096 81.5071 234.773 81.8881M236.73 93.7918C236.4 94.1677 236.4 94.1676 236.4 94.1675L236.4 94.1672L236.399 94.1665L236.397 94.1644L236.389 94.1578L236.363 94.1344C236.341 94.1144 236.31 94.0855 236.271 94.0482C236.192 93.9734 236.081 93.8645 235.947 93.7239C235.679 93.443 235.316 93.0344 234.934 92.5186C234.175 91.4916 233.32 90.0152 233.004 88.2593L233.002 88.2469L233.002 88.2469C232.73 86.4878 233.071 84.8329 233.468 83.6323C233.668 83.0294 233.884 82.5338 234.051 82.1874C234.135 82.014 234.206 81.8775 234.258 81.7831C234.284 81.7359 234.304 81.6991 234.319 81.6735L234.336 81.6435L234.341 81.6349L234.343 81.6322L234.344 81.6313L234.344 81.6309C234.344 81.6308 234.344 81.6306 234.773 81.8881M234.773 81.8881L235.096 81.5071L234.647 81.1254L234.344 81.6306L234.773 81.8881Z" fill="#E8C513" stroke="#E8C513"/>
<path d="M238.603 109.826C239.099 109.886 239.099 109.886 239.099 109.886L239.099 109.886L239.099 109.885L239.1 109.881L239.101 109.872L239.105 109.837C239.108 109.807 239.112 109.765 239.116 109.711C239.125 109.604 239.135 109.449 239.141 109.255C239.154 108.869 239.151 108.325 239.09 107.691C238.969 106.427 238.614 104.77 237.663 103.275C236.712 101.779 235.342 100.738 234.231 100.076C233.673 99.7429 233.173 99.5012 232.811 99.3421C232.63 99.2625 232.482 99.2034 232.379 99.1637C232.328 99.1439 232.287 99.1289 232.258 99.1186L232.225 99.1067L232.216 99.1034L232.213 99.1024L232.212 99.102L232.211 99.1019C232.211 99.1019 232.211 99.1018 232.05 99.5752M238.603 109.826C238.442 110.299 238.442 110.299 238.442 110.299L238.441 110.299L238.44 110.298L238.437 110.297L238.428 110.294L238.394 110.282C238.366 110.272 238.325 110.257 238.274 110.237C238.171 110.197 238.023 110.138 237.842 110.059C237.48 109.9 236.98 109.658 236.421 109.325C235.312 108.663 233.944 107.624 232.993 106.13C231.996 104.632 231.641 102.972 231.531 101.706C231.475 101.069 231.48 100.524 231.5 100.136C231.51 99.9423 231.523 99.7871 231.534 99.6788C231.54 99.6247 231.545 99.5822 231.549 99.5525L231.553 99.5176L231.555 99.5075L231.555 99.5043L231.555 99.5032L231.555 99.5028C231.555 99.5026 231.555 99.5024 232.05 99.5752M238.603 109.826L239.099 109.886L239.024 110.497L238.442 110.299L238.603 109.826ZM232.05 99.5752L232.211 99.1018L231.643 98.9086L231.555 99.5024L232.05 99.5752Z" fill="#E8C513" stroke="#E8C513"/>
<path d="M240.81 109.333C241.164 109.685 241.165 109.685 241.165 109.685L241.165 109.685L241.166 109.684L241.168 109.682L241.175 109.675L241.199 109.65C241.22 109.628 241.249 109.597 241.285 109.558C241.358 109.478 241.461 109.362 241.585 109.213C241.833 108.916 242.165 108.486 242.508 107.948C243.191 106.878 243.935 105.356 244.116 103.597L244.116 103.597L244.117 103.585C244.253 101.827 243.801 100.196 243.327 99.0196C243.089 98.4285 242.843 97.9446 242.655 97.6071C242.561 97.4382 242.482 97.3054 242.425 97.2137C242.397 97.1679 242.374 97.1322 242.358 97.1074L242.339 97.0784L242.333 97.0702L242.332 97.0676L242.331 97.0667L242.331 97.0664C242.331 97.0663 242.331 97.0661 241.916 97.3463M240.81 109.333C240.396 109.613 240.396 109.613 240.396 109.612L240.396 109.612L240.395 109.611L240.393 109.609L240.388 109.6L240.369 109.571C240.353 109.547 240.33 109.511 240.301 109.465C240.245 109.373 240.165 109.241 240.071 109.072C239.884 108.734 239.637 108.25 239.399 107.659C238.926 106.483 238.474 104.852 238.609 103.094L238.61 103.082L238.611 103.082C238.792 101.323 239.535 99.8008 240.218 98.7306C240.562 98.193 240.894 97.7626 241.141 97.4654C241.265 97.3167 241.368 97.2009 241.441 97.1213C241.478 97.0814 241.507 97.0506 241.527 97.0292L241.552 97.0042L241.559 96.9971L241.561 96.9949L241.562 96.9941L241.562 96.9938C241.562 96.9937 241.562 96.9936 241.916 97.3463M240.81 109.333L241.164 109.685L240.736 110.116L240.396 109.613L240.81 109.333ZM241.916 97.3463L241.562 96.9936L241.99 96.5633L242.331 97.0661L241.916 97.3463Z" fill="#E8C513" stroke="#E8C513"/>
<path d="M236.22 124.874L235.916 125.271L236.386 125.63L236.662 125.108L236.22 124.874ZM236.22 124.874C235.916 125.271 235.916 125.271 235.916 125.271L235.916 125.27L235.915 125.27L235.912 125.268L235.904 125.262L235.876 125.24C235.853 125.221 235.82 125.194 235.778 125.159C235.694 125.089 235.575 124.986 235.431 124.854C235.144 124.588 234.756 124.2 234.346 123.705C233.529 122.718 232.604 121.281 232.241 119.519C231.879 117.762 232.13 116.087 232.461 114.865C232.627 114.251 232.816 113.745 232.963 113.39C233.037 113.213 233.101 113.073 233.147 112.976C233.17 112.927 233.189 112.89 233.202 112.863L233.218 112.832L233.223 112.823L233.224 112.821L233.225 112.82L233.225 112.819C233.225 112.819 233.225 112.819 233.667 113.053M236.22 124.874C236.662 125.108 236.662 125.107 236.662 125.107L236.662 125.107L236.663 125.106L236.664 125.103L236.669 125.094L236.685 125.063C236.698 125.037 236.717 124.999 236.74 124.951C236.786 124.854 236.85 124.714 236.924 124.537C237.071 124.182 237.26 123.676 237.426 123.062C237.757 121.84 238.008 120.164 237.646 118.408C237.283 116.646 236.358 115.208 235.541 114.222C235.131 113.726 234.743 113.338 234.456 113.073C234.312 112.94 234.193 112.838 234.109 112.768C234.067 112.733 234.034 112.706 234.011 112.687L233.983 112.665L233.975 112.659L233.972 112.657L233.971 112.656L233.971 112.656C233.971 112.656 233.971 112.656 233.667 113.053M233.667 113.053L233.971 112.656L233.501 112.296L233.225 112.819L233.667 113.053Z" fill="#E8C513" stroke="#E8C513"/>
<path d="M243.786 114.292C244.27 114.167 244.27 114.167 244.27 114.167L244.27 114.168L244.27 114.169L244.271 114.172L244.274 114.182L244.282 114.215C244.288 114.244 244.298 114.285 244.309 114.337C244.331 114.441 244.359 114.591 244.389 114.779C244.448 115.155 244.509 115.687 244.52 116.318C244.542 117.576 244.366 119.254 243.553 120.878C242.783 122.461 241.549 123.653 240.528 124.442C240.014 124.839 239.547 125.14 239.208 125.342C239.038 125.443 238.899 125.519 238.802 125.572C238.753 125.598 238.715 125.617 238.688 125.631L238.656 125.647L238.647 125.651L238.644 125.653L238.643 125.653L238.643 125.653C238.643 125.654 238.643 125.654 238.424 125.204M243.786 114.292C243.567 113.842 243.567 113.842 243.567 113.842L243.567 113.842L243.566 113.843L243.563 113.844L243.554 113.848L243.522 113.864C243.495 113.878 243.457 113.898 243.408 113.924C243.311 113.976 243.172 114.053 243.002 114.154C242.663 114.356 242.196 114.656 241.682 115.053C240.661 115.842 239.428 117.033 238.658 118.615C237.843 120.2 237.668 121.88 237.69 123.146C237.701 123.782 237.762 124.321 237.821 124.704C237.85 124.895 237.879 125.047 237.901 125.153C237.912 125.206 237.921 125.248 237.928 125.277L237.936 125.311L237.938 125.321L237.939 125.324L237.939 125.325L237.939 125.325C237.939 125.325 237.939 125.326 238.424 125.204M243.786 114.292L244.27 114.167L244.118 113.575L243.567 113.842L243.786 114.292ZM238.424 125.204L238.643 125.654L238.089 125.922L237.939 125.326L238.424 125.204Z" fill="#E8C513" stroke="#E8C513"/>
<path d="M229.752 140.25L229.344 140.538L229.699 141.041L230.119 140.59L229.752 140.25ZM229.752 140.25C229.344 140.538 229.344 140.538 229.344 140.538L229.344 140.538L229.343 140.537L229.341 140.534L229.335 140.526L229.316 140.497C229.299 140.472 229.275 140.437 229.246 140.391C229.186 140.3 229.103 140.167 229.004 139.998C228.807 139.661 228.547 139.178 228.293 138.587C227.787 137.412 227.29 135.782 227.381 134.024C227.472 132.263 228.149 130.697 228.787 129.585C229.108 129.026 229.423 128.575 229.659 128.262C229.777 128.105 229.876 127.983 229.946 127.898C229.981 127.856 230.009 127.823 230.029 127.801L230.052 127.774L230.059 127.767L230.061 127.764L230.061 127.764L230.062 127.763C230.062 127.763 230.062 127.763 230.433 128.098M229.752 140.25C230.119 140.59 230.119 140.59 230.119 140.59L230.119 140.59L230.12 140.589L230.122 140.587L230.129 140.579L230.152 140.553C230.172 140.531 230.2 140.499 230.235 140.458C230.306 140.375 230.405 140.255 230.523 140.102C230.76 139.794 231.076 139.35 231.398 138.796C232.038 137.691 232.714 136.125 232.805 134.323L230.433 128.098M230.433 128.098C230.842 127.809 230.842 127.81 230.842 127.81L230.842 127.81L230.843 127.811L230.845 127.813L230.85 127.822L230.87 127.85C230.887 127.875 230.91 127.911 230.94 127.956C231 128.048 231.083 128.18 231.181 128.349C231.378 128.686 231.638 129.17 231.892 129.76C232.398 130.935 232.895 132.565 232.805 134.323L230.433 128.098ZM230.433 128.098L230.842 127.809L230.481 127.298L230.062 127.763L230.433 128.098Z" fill="#E8C513" stroke="#E8C513"/>
<path d="M231.789 141.071L231.289 141.058L231.274 141.674L231.88 141.562L231.789 141.071ZM231.789 141.071C231.88 141.562 231.88 141.562 231.88 141.562L231.881 141.562L231.882 141.562L231.885 141.561L231.895 141.559L231.93 141.552C231.96 141.546 232.003 141.537 232.057 141.525C232.166 141.5 232.322 141.463 232.515 141.409C232.901 141.303 233.437 141.134 234.044 140.882C235.254 140.38 236.778 139.536 237.955 138.174C239.13 136.813 239.731 135.223 240.04 133.99C240.195 133.372 240.278 132.836 240.323 132.453C240.345 132.261 240.358 132.107 240.365 132C240.368 131.946 240.371 131.904 240.372 131.874L240.373 131.84L240.374 131.83L240.374 131.827L240.374 131.826L240.374 131.825C240.374 131.825 240.374 131.825 239.874 131.812M231.789 141.071C231.289 141.058 231.289 141.058 231.289 141.058L231.289 141.058L231.289 141.057L231.289 141.053L231.29 141.043L231.291 141.009C231.292 140.979 231.295 140.937 231.298 140.883C231.305 140.776 231.318 140.622 231.34 140.43C231.385 140.047 231.468 139.512 231.623 138.893C231.932 137.66 232.533 136.07 233.708 134.71C234.885 133.347 236.409 132.504 237.618 132.002C238.226 131.749 238.762 131.58 239.148 131.474C239.341 131.421 239.497 131.383 239.606 131.358C239.66 131.346 239.703 131.337 239.733 131.331L239.768 131.324L239.778 131.322L239.781 131.321L239.782 131.321L239.783 131.321C239.783 131.321 239.783 131.321 239.874 131.812M239.874 131.812L240.374 131.825L240.389 131.209L239.783 131.321L239.874 131.812Z" fill="#E8C513" stroke="#E8C513"/>
<path d="M217.328 150.087L216.835 150.172L216.94 150.78L217.513 150.551L217.328 150.087ZM217.328 150.087C216.835 150.172 216.835 150.171 216.835 150.171L216.835 150.171L216.835 150.17L216.834 150.167L216.833 150.157L216.827 150.122C216.823 150.093 216.817 150.051 216.81 149.997C216.796 149.889 216.778 149.734 216.762 149.54C216.73 149.153 216.705 148.607 216.733 147.968C216.788 146.695 217.052 145.018 217.913 143.478C218.773 141.939 220.074 140.812 221.139 140.076C221.675 139.706 222.158 139.43 222.509 139.245C222.684 139.153 222.827 139.083 222.927 139.036C222.977 139.013 223.016 138.995 223.044 138.983L223.076 138.968L223.086 138.964L223.089 138.963L223.09 138.963L223.09 138.963C223.09 138.962 223.09 138.962 223.285 139.423M217.328 150.087C217.513 150.551 217.513 150.551 217.513 150.551L217.514 150.551L217.515 150.551L217.518 150.55L217.527 150.546L217.56 150.532C217.588 150.52 217.627 150.503 217.678 150.481C217.778 150.436 217.922 150.369 218.098 150.28C218.45 150.102 218.934 149.833 219.471 149.467C220.539 148.739 221.842 147.611 222.702 146.03C223.561 144.49 223.825 142.814 223.88 141.542C223.908 140.903 223.883 140.357 223.851 139.969C223.835 139.776 223.817 139.621 223.803 139.513C223.796 139.459 223.79 139.417 223.786 139.387L223.78 139.353L223.779 139.343L223.778 139.34L223.778 139.339L223.778 139.339C223.778 139.338 223.778 139.338 223.285 139.423M223.285 139.423L223.778 139.338L223.671 138.716L223.09 138.962L223.285 139.423Z" fill="#E8C513" stroke="#E8C513"/>
<path d="M218.859 151.734L218.415 151.506L218.129 152.061L218.733 152.218L218.859 151.734ZM218.859 151.734C218.733 152.218 218.733 152.218 218.734 152.218L218.734 152.218L218.735 152.219L218.738 152.22L218.748 152.222L218.783 152.231C218.812 152.238 218.855 152.248 218.909 152.259C219.018 152.283 219.174 152.315 219.371 152.348C219.764 152.414 220.32 152.486 220.977 152.513C222.287 152.566 224.031 152.44 225.701 151.695C227.367 150.952 228.616 149.778 229.442 148.803C229.857 148.314 230.17 147.87 230.381 147.547C230.486 147.385 230.566 147.253 230.62 147.16C230.647 147.114 230.667 147.077 230.682 147.052L230.698 147.021L230.703 147.013L230.704 147.01L230.705 147.009L230.705 147.008C230.705 147.008 230.705 147.008 230.263 146.774M218.859 151.734C218.415 151.506 218.415 151.505 218.415 151.505L218.415 151.505L218.416 151.504L218.417 151.501L218.422 151.492L218.438 151.461C218.453 151.435 218.473 151.397 218.5 151.35C218.555 151.255 218.634 151.119 218.74 150.954C218.95 150.624 219.263 150.172 219.678 149.677C220.505 148.692 221.756 147.515 223.426 146.812C225.095 146.068 226.837 145.942 228.145 145.996C228.803 146.023 229.359 146.095 229.752 146.161C229.949 146.194 230.105 146.226 230.214 146.25C230.268 146.261 230.31 146.271 230.34 146.278L230.375 146.287L230.385 146.289L230.388 146.29L230.389 146.29L230.389 146.291C230.389 146.291 230.389 146.291 230.263 146.774M230.263 146.774L230.705 147.008L231 146.45L230.389 146.291L230.263 146.774Z" fill="#E8C513" stroke="#E8C513"/>
<path d="M212.221 148.02C212.209 147.52 212.209 147.52 212.209 147.52L212.209 147.52L212.208 147.52L212.205 147.52L212.195 147.521L212.16 147.522C212.131 147.523 212.089 147.525 212.035 147.529C211.927 147.535 211.773 147.547 211.58 147.568C211.194 147.61 210.653 147.688 210.024 147.832C208.771 148.121 207.144 148.68 205.706 149.771L205.7 149.776L205.693 149.782C204.295 150.92 203.404 152.377 202.864 153.533C202.593 154.113 202.408 154.624 202.289 154.992C202.23 155.176 202.188 155.324 202.16 155.428C202.146 155.48 202.135 155.521 202.128 155.55L202.12 155.583L202.118 155.593L202.117 155.596L202.117 155.597L202.117 155.598C202.117 155.598 202.117 155.598 202.604 155.708M212.221 148.02C212.709 148.13 212.709 148.13 212.709 148.131L212.709 148.131L212.709 148.132L212.708 148.135L212.706 148.145L212.697 148.178C212.69 148.207 212.68 148.248 212.666 148.3C212.638 148.404 212.596 148.552 212.536 148.736C212.418 149.104 212.233 149.615 211.962 150.195C211.422 151.351 210.531 152.808 209.133 153.946L209.125 153.952L209.125 153.952C207.727 155.048 206.095 155.608 204.833 155.896C204.198 156.041 203.649 156.118 203.257 156.16C203.061 156.181 202.903 156.193 202.794 156.2C202.739 156.203 202.696 156.205 202.666 156.206L202.631 156.208L202.621 156.208L202.618 156.208L202.617 156.208L202.616 156.208C202.616 156.208 202.616 156.208 202.604 155.708M212.221 148.02L212.209 147.52L212.85 147.505L212.709 148.13L212.221 148.02ZM202.604 155.708L202.616 156.208L201.976 156.223L202.117 155.598L202.604 155.708Z" fill="#E8C513" stroke="#E8C513"/>
<path d="M215.965 157.196L216.296 157.571L216.768 157.155L216.256 156.789L215.965 157.196ZM215.965 157.196C216.256 156.789 216.256 156.789 216.256 156.789L216.255 156.789L216.254 156.788L216.252 156.786L216.244 156.78L216.215 156.76C216.19 156.743 216.154 156.719 216.108 156.689C216.016 156.629 215.883 156.545 215.714 156.445C215.375 156.245 214.888 155.982 214.291 155.724C213.102 155.211 211.449 154.708 209.643 154.795C207.839 154.883 206.232 155.538 205.089 156.157C204.515 156.468 204.051 156.774 203.729 157.003C203.568 157.118 203.442 157.213 203.355 157.281C203.312 157.315 203.278 157.342 203.255 157.361L203.228 157.384L203.22 157.39L203.218 157.392L203.217 157.393L203.216 157.393C203.216 157.393 203.216 157.393 203.54 157.774M215.965 157.196C216.296 157.571 216.295 157.571 216.295 157.571L216.295 157.572L216.294 157.572L216.292 157.575L216.284 157.581L216.257 157.605C216.233 157.624 216.2 157.652 216.156 157.688C216.069 157.758 215.943 157.857 215.782 157.975C215.46 158.211 214.995 158.526 214.419 158.843C213.275 159.473 211.665 160.13 209.856 160.175C208.053 160.262 206.402 159.759 205.214 159.246C204.617 158.988 204.13 158.725 203.792 158.526C203.622 158.426 203.489 158.341 203.397 158.281C203.351 158.251 203.315 158.227 203.291 158.21L203.262 158.19L203.253 158.184L203.251 158.182L203.25 158.182L203.25 158.182C203.25 158.181 203.249 158.181 203.54 157.774M203.54 157.774L203.216 157.393L202.728 157.809L203.249 158.181L203.54 157.774Z" fill="#E8C513" stroke="#E8C513"/>
<path d="M197.242 60.2292C196.776 60.4092 196.776 60.4094 196.776 60.4095L196.776 60.4099L196.776 60.4109L196.778 60.4138L196.781 60.4231L196.794 60.4556C196.806 60.4833 196.822 60.5229 196.844 60.5731C196.887 60.6734 196.952 60.8165 197.038 60.9926C197.21 61.3446 197.47 61.8306 197.823 62.3727C198.527 63.452 199.62 64.7796 201.155 65.7006L201.155 65.7007L201.161 65.7039C202.738 66.6233 204.437 66.9452 205.726 67.0415C206.373 67.0899 206.924 67.0819 207.314 67.0616C207.51 67.0515 207.666 67.0382 207.774 67.0273C207.829 67.0219 207.871 67.017 207.901 67.0134L207.936 67.009L207.946 67.0076L207.949 67.0072L207.95 67.007L207.95 67.007C207.95 67.007 207.951 67.0069 207.88 66.5119M197.242 60.2292C197.172 59.7341 197.172 59.7341 197.172 59.7341L197.173 59.734L197.174 59.7339L197.177 59.7335L197.187 59.7321L197.222 59.7277C197.251 59.7241 197.294 59.7192 197.348 59.7137C197.457 59.7028 197.612 59.6896 197.808 59.6795C198.199 59.6592 198.749 59.6512 199.396 59.6996C200.685 59.7959 202.384 60.1178 203.962 61.0372C205.543 61.9586 206.637 63.2884 207.333 64.3714C207.682 64.915 207.934 65.4024 208.1 65.7557C208.183 65.9325 208.245 66.0761 208.286 66.177C208.307 66.2275 208.322 66.2673 208.333 66.2953L208.345 66.3282L208.349 66.3377L208.35 66.3407L208.35 66.3417L208.351 66.3421C208.351 66.3423 208.351 66.3424 207.88 66.5119M197.242 60.2292L196.776 60.4092L196.549 59.8226L197.172 59.7341L197.242 60.2292ZM207.88 66.5119L208.351 66.3424L208.559 66.9205L207.951 67.0069L207.88 66.5119Z" fill="#E8C513" stroke="#E8C513"/>
<path d="M76.9043 73.9464L76.4958 73.6581L76.1301 74.1761L76.7192 74.4109L76.9043 73.9464ZM76.9043 73.9464C76.7192 74.4109 76.7193 74.411 76.7195 74.411L76.7199 74.4112L76.7209 74.4116L76.7238 74.4127L76.7333 74.4164L76.7664 74.4291C76.7947 74.4397 76.8353 74.4546 76.8874 74.473C76.9915 74.5096 77.1417 74.5599 77.3316 74.6167C77.7108 74.73 78.2501 74.8697 78.8968 74.9771C80.1848 75.1909 81.9275 75.2817 83.6856 74.7562C85.4442 74.2305 86.8291 73.2062 87.7671 72.3271C88.2379 71.886 88.601 71.4768 88.8476 71.1764C88.971 71.026 89.0656 70.9025 89.1301 70.8153C89.1624 70.7717 89.1872 70.7371 89.2044 70.7128L89.2244 70.6841L89.2301 70.6758L89.2319 70.6732L89.2325 70.6723L89.2328 70.672C89.2329 70.6718 89.233 70.6717 88.8188 70.3915M76.9043 73.9464C76.4958 73.6581 76.4959 73.658 76.496 73.6578L76.4962 73.6575L76.4968 73.6566L76.4986 73.6541L76.5045 73.646L76.5251 73.6176C76.5428 73.5936 76.5684 73.5592 76.6016 73.5159C76.6681 73.4292 76.7654 73.3062 76.8919 73.1563C77.1445 72.857 77.5149 72.4489 77.99 72.0088C78.936 71.1326 80.3193 70.1089 82.0341 69.5828L82.0375 69.5818L82.0375 69.5818C83.7956 69.0563 85.5383 69.147 86.8263 69.3609C87.473 69.4683 88.0123 69.6079 88.3915 69.7213C88.5814 69.778 88.7316 69.8283 88.8358 69.865C88.8878 69.8833 88.9284 69.8983 88.9567 69.9089L88.9898 69.9215L88.9993 69.9252L89.0022 69.9264L89.0032 69.9268L89.0036 69.9269C89.0038 69.927 89.0039 69.9271 88.8188 70.3915M88.8188 70.3915L89.233 70.6717L89.5811 70.1571L89.0039 69.9271L88.8188 70.3915Z" fill="#E8C513" stroke="#E8C513"/>
<path d="M75.6294 72.2157L75.1307 72.2524L75.1747 72.8509L75.7554 72.6995L75.6294 72.2157ZM75.6294 72.2157C75.1307 72.2524 75.1307 72.2522 75.1307 72.252L75.1306 72.2516L75.1306 72.2505L75.1303 72.2473L75.1297 72.2372L75.1277 72.2023C75.1261 72.1726 75.1242 72.1302 75.1226 72.0761C75.1194 71.968 75.1173 71.8131 75.1215 71.6198C75.1299 71.2335 75.1633 70.6913 75.2632 70.0606C75.4622 68.8041 75.9297 67.1677 77.0163 65.7164C78.099 64.2704 79.5321 63.3181 80.6773 62.7299C81.2523 62.4345 81.7613 62.2276 82.1282 62.0939C82.3118 62.027 82.4604 61.9783 82.5644 61.946C82.6164 61.9298 82.6573 61.9177 82.686 61.9094L82.7197 61.8999L82.7293 61.8972L82.7323 61.8964L82.7334 61.8962L82.7338 61.896C82.7339 61.896 82.7341 61.896 82.8631 62.379M75.6294 72.2157C75.7554 72.6995 75.7556 72.6995 75.7558 72.6995L75.7562 72.6994L75.7572 72.6991L75.7602 72.6983L75.7701 72.6956L75.8045 72.6861C75.8337 72.6779 75.8755 72.6658 75.9286 72.6497C76.0348 72.6173 76.1864 72.5687 76.3734 72.5018C76.7471 72.3683 77.2645 72.1613 77.8454 71.8657C79.0002 71.2782 80.4368 70.325 81.4793 68.8742C82.5637 67.424 83.0305 65.7894 83.2293 64.5341C83.3292 63.9034 83.3626 63.3613 83.371 62.9749C83.3752 62.7816 83.3731 62.6267 83.3699 62.5186C83.3683 62.4646 83.3664 62.4222 83.3648 62.3924L83.3628 62.3575L83.3621 62.3474L83.3619 62.3442L83.3618 62.3431L83.3618 62.3427C83.3618 62.3425 83.3618 62.3424 82.8631 62.379M82.8631 62.379L83.3618 62.3424L83.3175 61.7401L82.7341 61.896L82.8631 62.379Z" fill="#E8C513" stroke="#E8C513"/>
<path d="M77.2444 77.3358L77.6938 77.555L77.9742 76.9802L77.3487 76.8468L77.2444 77.3358ZM77.2444 77.3358C77.3487 76.8468 77.3485 76.8468 77.3484 76.8467L77.348 76.8466L77.347 76.8464L77.344 76.8458L77.3342 76.8438L77.2998 76.837C77.2704 76.8312 77.2281 76.8233 77.174 76.8139C77.0659 76.7952 76.9101 76.7705 76.7146 76.7455C76.3238 76.6957 75.7719 76.6449 75.121 76.6395C73.8252 76.6288 72.106 76.7982 70.483 77.5426L70.483 77.5426L70.4778 77.545C68.8116 78.3324 67.5849 79.5503 66.7798 80.5574C66.3757 81.0627 66.0737 81.52 65.8718 81.8527C65.7708 82.0192 65.6946 82.1549 65.6429 82.2504C65.6171 82.2981 65.5974 82.3358 65.5838 82.3623L65.568 82.3935L65.5635 82.4025L65.5622 82.4053L65.5617 82.4063L65.5615 82.4067C65.5614 82.4068 65.5613 82.407 66.0107 82.6261M77.2444 77.3358C77.6938 77.555 77.6938 77.5551 77.6937 77.5553L77.6935 77.5557L77.693 77.5566L77.6916 77.5595L77.6872 77.5685L77.6713 77.5997C77.6577 77.6262 77.6381 77.6639 77.6122 77.7116C77.5606 77.807 77.4844 77.9428 77.3833 78.1093C77.1814 78.4419 76.8794 78.8993 76.4754 79.4046C75.6706 80.4111 74.4448 81.6284 72.7798 82.4158C71.1525 83.2054 69.4289 83.3748 68.1301 83.3534C67.4775 83.3427 66.9241 83.2836 66.5322 83.2269C66.3361 83.1985 66.1799 83.1707 66.0713 83.1496C66.017 83.139 65.9746 83.1302 65.9449 83.1238L65.9102 83.1161L65.9003 83.1138L65.8973 83.1131L65.8962 83.1129L65.8958 83.1128C65.8956 83.1127 65.8955 83.1127 66.0107 82.6261M66.0107 82.6261L65.5613 82.407L65.2874 82.9686L65.8955 83.1127L66.0107 82.6261Z" fill="#E8C513" stroke="#E8C513"/>
<path d="M70.0978 70.3146C69.8985 69.856 69.8984 69.8561 69.8982 69.8561L69.8978 69.8563L69.8969 69.8567L69.894 69.858L69.8849 69.862L69.853 69.8764C69.8259 69.8888 69.7872 69.9069 69.7382 69.9305C69.6401 69.9779 69.5004 70.048 69.3287 70.1412C68.9856 70.3274 68.5128 70.6068 67.9877 70.9827C66.9421 71.7311 65.665 72.8791 64.8076 74.4572L64.8075 74.4572L64.8024 74.4671C63.989 76.0472 63.7691 77.7223 63.747 78.9859C63.736 79.6204 63.7747 80.1585 63.8164 80.5397C63.8373 80.7304 63.859 80.8825 63.8758 80.9882C63.8842 81.0411 63.8914 81.0825 63.8966 81.1114L63.9028 81.1452L63.9047 81.155L63.9053 81.158L63.9055 81.1591L63.9056 81.1595C63.9056 81.1596 63.9057 81.1598 64.3959 81.0613M70.0978 70.3146C70.588 70.2161 70.588 70.2163 70.5881 70.2164L70.5881 70.2168L70.5884 70.2179L70.589 70.2209L70.5908 70.2306L70.5971 70.2645C70.6023 70.2934 70.6095 70.3348 70.6179 70.3877C70.6347 70.4934 70.6564 70.6454 70.6773 70.8362C70.719 71.2174 70.7577 71.7555 70.7466 72.39C70.7246 73.6535 70.5046 75.3287 69.6913 76.9088L69.6862 76.9187L69.6861 76.9187C68.8286 78.4968 67.5516 79.6448 66.506 80.3932C65.9809 80.769 65.5081 81.0485 65.1649 81.2347C64.9932 81.3279 64.8535 81.398 64.7555 81.4453C64.7064 81.469 64.6678 81.4871 64.6407 81.4995L64.6088 81.5139L64.5997 81.5179L64.5968 81.5192L64.5958 81.5196L64.5955 81.5198C64.5953 81.5198 64.5952 81.5199 64.3959 81.0613M70.0978 70.3146L69.8985 69.856L70.4661 69.6093L70.588 70.2161L70.0978 70.3146ZM64.3959 81.0613L64.5952 81.5199L64.0276 81.7665L63.9057 81.1598L64.3959 81.0613Z" fill="#E8C513" stroke="#E8C513"/>
<path d="M59.0293 94.9427L58.533 94.8818L58.4575 95.4977L59.0754 95.4405L59.0293 94.9427ZM59.0293 94.9427C59.0754 95.4405 59.0755 95.4405 59.0757 95.4405L59.0761 95.4405L59.0771 95.4404L59.0802 95.4401L59.0903 95.4391L59.1255 95.4353C59.1555 95.432 59.1985 95.4269 59.2533 95.4196C59.3628 95.4051 59.5197 95.382 59.7148 95.3469C60.1046 95.2769 60.6488 95.1588 61.2728 94.9656C62.515 94.5812 64.1041 93.8903 65.4138 92.662C66.7233 91.4338 67.5028 89.9106 67.9544 88.7122C68.1812 88.1104 68.3279 87.5835 68.4183 87.2054C68.4635 87.0161 68.4948 86.8636 68.5149 86.757C68.525 86.7037 68.5323 86.6618 68.5372 86.6324L68.5428 86.598L68.5443 86.5881L68.5448 86.585L68.5449 86.584L68.545 86.5836C68.545 86.5834 68.545 86.5832 68.0504 86.5105M59.0293 94.9427C58.533 94.8818 58.533 94.8817 58.5331 94.8815L58.5331 94.8811L58.5332 94.88L58.5336 94.8768L58.535 94.8667L58.5398 94.8319C58.5441 94.8023 58.5504 94.7602 58.5594 94.7065C58.5773 94.5993 58.6055 94.4462 58.6474 94.2563C58.7311 93.8768 58.87 93.3483 59.0919 92.7448C59.5337 91.5431 60.3144 90.0177 61.669 88.7883C62.9781 87.5618 64.5656 86.8716 65.8068 86.4875C66.4309 86.2944 66.9751 86.1763 67.3648 86.1062C67.5599 86.0712 67.7169 86.048 67.8264 86.0335C67.8812 86.0263 67.9242 86.0212 67.9542 86.0179L67.9894 86.0141L67.9994 86.0131L68.0025 86.0128L68.0036 86.0127L68.004 86.0127C68.0041 86.0126 68.0043 86.0126 68.0504 86.5105M68.0504 86.5105L68.545 86.5832L68.6376 85.954L68.0043 86.0126L68.0504 86.5105Z" fill="#E8C513" stroke="#E8C513"/>
<path d="M57.0763 93.7917L56.6477 94.0491L56.956 94.5625L57.4061 94.1676L57.0763 93.7917ZM57.0763 93.7917C56.6477 94.0491 56.6476 94.049 56.6475 94.0488L56.6473 94.0485L56.6467 94.0476L56.6451 94.0449L56.6401 94.0363L56.6227 94.0063C56.608 93.9806 56.5872 93.9439 56.5615 93.8967C56.51 93.8022 56.4384 93.6657 56.3547 93.4924C56.1876 93.146 55.9714 92.6504 55.7719 92.0475C55.3746 90.8469 55.034 89.1919 55.3056 87.4329C55.5781 85.6685 56.4364 84.1868 57.2083 83.1584C57.5962 82.6417 57.9676 82.2324 58.2431 81.9513C58.381 81.8106 58.4954 81.7015 58.5763 81.6267C58.6168 81.5892 58.649 81.5603 58.6717 81.5403L58.6984 81.5169L58.7061 81.5102L58.7085 81.5082L58.7093 81.5075L58.7096 81.5072C58.7098 81.5071 58.7099 81.507 59.0337 81.8879M57.0763 93.7917C57.4061 94.1676 57.4062 94.1675 57.4063 94.1674L57.4066 94.1671L57.4074 94.1664L57.4097 94.1643L57.4172 94.1577L57.4431 94.1343C57.465 94.1143 57.4962 94.0854 57.5355 94.048C57.6141 93.9733 57.7251 93.8643 57.8594 93.7238C58.1277 93.4429 58.4902 93.0343 58.8718 92.5185C59.6318 91.4915 60.486 90.0151 60.8023 88.2591L60.8025 88.2592L60.8044 88.2468C61.0761 86.4877 60.7354 84.8328 60.3382 83.6322C60.1387 83.0293 59.9224 82.5337 59.7553 82.1873C59.6716 82.0139 59.6 81.8774 59.5485 81.783C59.5228 81.7358 59.5021 81.699 59.4874 81.6734L59.47 81.6434L59.4649 81.6348L59.4633 81.6321L59.4627 81.6312L59.4625 81.6308C59.4624 81.6307 59.4624 81.6305 59.0337 81.8879M59.0337 81.8879L58.7099 81.507L59.1589 81.1253L59.4624 81.6305L59.0337 81.8879Z" fill="#E8C513" stroke="#E8C513"/>
<path d="M61.7496 99.5751C62.2459 99.5143 62.2459 99.5144 62.2459 99.5146L62.2459 99.515L62.2461 99.5161L62.2464 99.5191L62.2476 99.5291L62.2513 99.5637C62.2543 99.5932 62.2583 99.6354 62.2627 99.6893C62.2715 99.7971 62.2816 99.9518 62.2879 100.145C62.3004 100.532 62.2976 101.075 62.2366 101.71C62.1154 102.973 61.7613 104.628 60.8116 106.123C59.8599 107.663 58.4888 108.705 57.3751 109.358C56.8154 109.686 56.3136 109.921 55.9503 110.074C55.7684 110.15 55.6206 110.206 55.5169 110.244C55.465 110.263 55.4241 110.277 55.3954 110.287L55.3617 110.298L55.352 110.301L55.3489 110.302L55.3479 110.302L55.3475 110.302C55.3473 110.303 55.3471 110.303 55.1966 109.826M61.7496 99.5751C61.5886 99.1017 61.5885 99.1017 61.5883 99.1018L61.5879 99.1019L61.5869 99.1023L61.584 99.1033L61.5744 99.1066L61.541 99.1185C61.5126 99.1288 61.472 99.1438 61.4203 99.1636C61.3172 99.2033 61.17 99.2624 60.9887 99.342C60.6265 99.5011 60.1262 99.7428 59.568 100.076C58.4573 100.738 57.0876 101.779 56.1363 103.275C55.1853 104.771 54.8308 106.427 54.7095 107.691C54.6486 108.325 54.6458 108.869 54.6583 109.256C54.6646 109.449 54.6747 109.604 54.6835 109.712C54.6878 109.765 54.6919 109.808 54.6949 109.837L54.6986 109.872L54.6997 109.882L54.7001 109.885L54.7002 109.886L54.7003 109.886C54.7003 109.886 54.7003 109.887 55.1966 109.826M61.7496 99.5751L62.2459 99.5143L62.171 98.9037L61.5886 99.1017L61.7496 99.5751ZM55.1966 109.826L55.3471 110.303L54.7735 110.484L54.7003 109.887L55.1966 109.826Z" fill="#E8C513" stroke="#E8C513"/>
<path d="M52.9912 109.333L52.6368 109.685L53.0651 110.116L53.4053 109.613L52.9912 109.333ZM52.9912 109.333C52.6368 109.685 52.6367 109.685 52.6366 109.685L52.6363 109.685L52.6355 109.684L52.6333 109.682L52.6264 109.675L52.6022 109.65C52.5817 109.628 52.5526 109.597 52.5161 109.558C52.443 109.478 52.34 109.362 52.2161 109.213C51.9685 108.916 51.6363 108.486 51.2932 107.948C50.6101 106.878 49.8665 105.356 49.6854 103.597C49.5037 101.832 49.9583 100.195 50.4438 99.0159C50.6878 98.4234 50.9429 97.9385 51.1379 97.6003C51.2355 97.431 51.3183 97.298 51.3776 97.2061C51.4072 97.1601 51.431 97.1244 51.4478 97.0995L51.4677 97.0704L51.4735 97.0621L51.4753 97.0595L51.4759 97.0586L51.4762 97.0582C51.4763 97.0581 51.4764 97.058 51.8849 97.3463M52.9912 109.333C53.4053 109.613 53.4054 109.613 53.4055 109.612L53.4057 109.612L53.4063 109.611L53.408 109.609L53.4136 109.6L53.4326 109.571C53.4486 109.547 53.4714 109.511 53.4998 109.465C53.5566 109.373 53.6361 109.241 53.7301 109.072C53.9177 108.734 54.1639 108.25 54.4018 107.659C54.8753 106.483 55.3275 104.852 55.1918 103.094L55.1919 103.094L55.1906 103.082C55.0096 101.323 54.266 99.8008 53.5829 98.7306C53.2397 98.193 52.9075 97.7626 52.66 97.4655C52.5361 97.3167 52.4331 97.2009 52.36 97.1213C52.3234 97.0815 52.2943 97.0506 52.2739 97.0292L52.2497 97.0042L52.2427 96.9971L52.2405 96.9949L52.2398 96.9941L52.2395 96.9938C52.2394 96.9937 52.2393 96.9936 51.8849 97.3463M51.8849 97.3463L51.4764 97.058L51.8195 96.5719L52.2393 96.9936L51.8849 97.3463Z" fill="#E8C513" stroke="#E8C513"/>
<path d="M57.578 124.874L57.136 125.107L57.4123 125.63L57.8819 125.271L57.578 124.874ZM57.578 124.874C57.8819 125.271 57.882 125.271 57.8822 125.271L57.8825 125.27L57.8834 125.27L57.8859 125.268L57.8939 125.262L57.9216 125.24C57.9451 125.221 57.9785 125.194 58.0205 125.159C58.1045 125.089 58.2232 124.986 58.3668 124.853C58.6538 124.588 59.0421 124.2 59.4524 123.705C60.2694 122.718 61.1941 121.281 61.5569 119.519C61.9185 117.762 61.6681 116.087 61.337 114.865C61.1708 114.251 60.9823 113.745 60.8346 113.39C60.7607 113.212 60.6968 113.073 60.6507 112.976C60.6276 112.927 60.609 112.889 60.5957 112.863L60.58 112.832L60.5754 112.823L60.574 112.821L60.5735 112.82L60.5733 112.819C60.5732 112.819 60.5731 112.819 60.1311 113.053M57.578 124.874C57.136 125.107 57.1359 125.107 57.1358 125.107L57.1356 125.107L57.1351 125.106L57.1337 125.103L57.1291 125.094L57.1134 125.063C57.1001 125.037 57.0815 124.999 57.0584 124.951C57.0123 124.854 56.9484 124.714 56.8745 124.536C56.7268 124.182 56.5383 123.675 56.3721 123.062C56.0409 121.84 55.7905 120.164 56.1522 118.408C56.515 116.646 57.4397 115.208 58.2567 114.222C58.667 113.726 59.0553 113.338 59.3423 113.073C59.4859 112.94 59.6046 112.838 59.6886 112.768C59.7306 112.733 59.764 112.706 59.7875 112.687L59.8152 112.665L59.8232 112.659L59.8257 112.657L59.8266 112.656L59.8269 112.656C59.827 112.656 59.8272 112.656 60.1311 113.053M60.1311 113.053L60.5731 112.819L60.2967 112.296L59.8272 112.656L60.1311 113.053Z" fill="#E8C513" stroke="#E8C513"/>
<path d="M49.9282 114.292C49.4411 114.179 49.441 114.179 49.441 114.179L49.4409 114.179L49.4407 114.18L49.44 114.183L49.4378 114.193L49.4306 114.226C49.4247 114.255 49.4164 114.295 49.4067 114.347C49.3872 114.451 49.3616 114.6 49.3358 114.788C49.2842 115.163 49.2316 115.693 49.2261 116.323C49.215 117.577 49.3906 119.25 50.157 120.871L50.157 120.871L50.1593 120.876C50.9292 122.459 52.1643 123.652 53.1862 124.442C53.6998 124.839 54.1666 125.14 54.5063 125.342C54.6763 125.443 54.815 125.519 54.9123 125.572C54.961 125.598 54.9995 125.617 55.0264 125.631L55.0579 125.647L55.067 125.651L55.0697 125.653L55.0707 125.653L55.071 125.653C55.0712 125.654 55.0713 125.654 55.2898 125.204M49.9282 114.292C50.1466 113.842 50.1468 113.842 50.1469 113.842L50.1473 113.842L50.1482 113.843L50.151 113.844L50.16 113.848L50.1916 113.864C50.2185 113.878 50.2569 113.898 50.3056 113.924C50.403 113.976 50.5416 114.053 50.7117 114.154C51.0513 114.356 51.5181 114.656 52.0318 115.053C53.0525 115.842 54.286 117.033 55.0561 118.615C55.8709 120.2 56.0458 121.88 56.0237 123.146C56.0126 123.782 55.9516 124.321 55.893 124.704C55.8637 124.895 55.8349 125.047 55.8131 125.153C55.8021 125.206 55.793 125.248 55.7863 125.277L55.7783 125.311L55.7759 125.321L55.7752 125.324L55.7749 125.325L55.7748 125.325C55.7748 125.325 55.7747 125.326 55.2898 125.204M49.9282 114.292L49.4411 114.179L49.5826 113.568L50.1466 113.842L49.9282 114.292ZM55.2898 125.204L55.7747 125.326L55.6249 125.922L55.0713 125.654L55.2898 125.204Z" fill="#E8C513" stroke="#E8C513"/>
<path d="M64.0564 140.25L63.6902 140.59L64.1096 141.041L64.4648 140.538L64.0564 140.25ZM64.0564 140.25C64.4648 140.538 64.4649 140.538 64.465 140.538L64.4653 140.537L64.4659 140.537L64.4676 140.534L64.4733 140.526L64.4931 140.497C64.5098 140.472 64.5336 140.437 64.5633 140.391C64.6226 140.3 64.7058 140.167 64.8045 139.998C65.0016 139.661 65.2614 139.178 65.5156 138.587C66.0215 137.412 66.5185 135.782 66.428 134.024C66.3373 132.263 65.6602 130.696 65.0219 129.585C64.7011 129.026 64.3858 128.575 64.1497 128.262C64.0315 128.105 63.9328 127.982 63.8628 127.898C63.8277 127.856 63.7998 127.823 63.7801 127.801L63.757 127.774L63.7503 127.767L63.7482 127.764L63.7475 127.764L63.7473 127.763C63.7471 127.763 63.747 127.763 63.3755 128.098M64.0564 140.25C63.6902 140.59 63.6901 140.59 63.69 140.59L63.6897 140.59L63.6889 140.589L63.6868 140.586L63.68 140.579L63.6566 140.553C63.6367 140.531 63.6086 140.499 63.5734 140.458C63.503 140.375 63.4039 140.255 63.2854 140.102C63.0486 139.794 62.7325 139.35 62.4111 138.795C61.7708 137.691 61.0944 136.125 61.0039 134.323C60.9135 132.565 61.4104 130.935 61.9163 129.76C62.1705 129.169 62.4303 128.686 62.6274 128.349C62.7261 128.18 62.8093 128.048 62.8686 127.956C62.8983 127.911 62.9221 127.875 62.9388 127.85L62.9586 127.821L62.9643 127.813L62.966 127.811L62.9666 127.81L62.9669 127.81C62.967 127.809 62.9671 127.809 63.3755 128.098M63.3755 128.098L63.747 127.763L63.3281 127.298L62.9671 127.809L63.3755 128.098Z" fill="#E8C513" stroke="#E8C513"/>
<path d="M61.9287 141.071L61.8377 141.562L62.4436 141.674L62.4285 141.058L61.9287 141.071ZM61.9287 141.071C61.8377 141.562 61.8375 141.562 61.8374 141.562L61.837 141.562L61.8359 141.562L61.8328 141.561L61.8228 141.559L61.7877 141.552C61.7578 141.546 61.7149 141.537 61.6604 141.525C61.5514 141.5 61.3956 141.463 61.2026 141.409C60.8169 141.303 60.2809 141.134 59.6732 140.882C58.4639 140.38 56.9394 139.536 55.7631 138.174C54.588 136.813 53.9869 135.223 53.6779 133.99C53.5228 133.372 53.4395 132.836 53.395 132.453C53.3727 132.261 53.36 132.107 53.3528 132C53.3493 131.946 53.3471 131.904 53.3457 131.874L53.3444 131.84L53.344 131.83L53.3439 131.827L53.3439 131.826L53.3439 131.825C53.3439 131.825 53.3439 131.825 53.8438 131.812M61.9287 141.071C62.4285 141.058 62.4285 141.058 62.4285 141.058L62.4285 141.058L62.4285 141.057L62.4284 141.053L62.4281 141.043L62.4267 141.009C62.4253 140.979 62.4232 140.937 62.4196 140.883C62.4124 140.776 62.3997 140.622 62.3774 140.43C62.3329 140.047 62.2496 139.512 62.0945 138.893C61.7855 137.66 61.1844 136.07 60.0093 134.71C58.833 133.347 57.3085 132.504 56.0992 132.002C55.4915 131.749 54.9555 131.58 54.5699 131.474C54.3768 131.421 54.221 131.383 54.112 131.358C54.0575 131.346 54.0146 131.337 53.9847 131.331L53.9496 131.324L53.9396 131.322L53.9365 131.321L53.9354 131.321L53.935 131.321C53.9349 131.321 53.9347 131.321 53.8438 131.812M53.8438 131.812L53.9347 131.321L53.3288 131.209L53.3439 131.825L53.8438 131.812Z" fill="#E8C513" stroke="#E8C513"/>
<path d="M76.4738 150.086C76.9666 150.171 76.9666 150.171 76.9667 150.171L76.9667 150.17L76.9669 150.169L76.9674 150.166L76.969 150.156L76.9744 150.122C76.9789 150.092 76.985 150.05 76.992 149.996C77.0061 149.889 77.0239 149.734 77.0399 149.54C77.0719 149.152 77.0968 148.607 77.0691 147.967C77.014 146.694 76.7496 145.017 75.889 143.477L75.8891 143.477L75.8835 143.468C74.9827 141.937 73.6865 140.813 72.6324 140.077C72.103 139.707 71.6284 139.431 71.2847 139.247C71.1127 139.155 70.9731 139.085 70.8752 139.038C70.8262 139.014 70.7877 138.997 70.7607 138.984L70.7291 138.97L70.72 138.966L70.7173 138.965L70.7163 138.964L70.716 138.964C70.7158 138.964 70.7157 138.964 70.5164 139.423M76.4738 150.086C76.2887 150.551 76.2886 150.551 76.2884 150.551L76.288 150.551L76.287 150.55L76.2841 150.549L76.2747 150.545L76.2419 150.532C76.2141 150.52 76.1744 150.503 76.124 150.48C76.0233 150.435 75.88 150.369 75.7039 150.279C75.3521 150.101 74.8676 149.832 74.3307 149.466C73.2624 148.739 71.96 147.611 71.0998 146.029C70.2403 144.49 69.9762 142.814 69.9211 141.542C69.8935 140.902 69.9183 140.357 69.9503 139.969C69.9663 139.775 69.9841 139.62 69.9982 139.513C70.0052 139.459 70.0113 139.417 70.0158 139.387L70.0212 139.353L70.0228 139.343L70.0233 139.34L70.0235 139.339L70.0235 139.338C70.0236 139.338 70.0236 139.338 70.5164 139.423M76.4738 150.086L76.9666 150.171L76.8622 150.78L76.2887 150.551L76.4738 150.086ZM70.5164 139.423L70.0236 139.338L70.1313 138.71L70.7157 138.964L70.5164 139.423Z" fill="#E8C513" stroke="#E8C513"/>
<path d="M74.9499 151.733L75.076 152.216L75.6802 152.059L75.3945 151.504L74.9499 151.733ZM74.9499 151.733C75.076 152.216 75.0758 152.217 75.0757 152.217L75.0753 152.217L75.0742 152.217L75.0712 152.218L75.0613 152.22L75.0266 152.229C74.997 152.236 74.9546 152.246 74.9002 152.258C74.7916 152.281 74.6351 152.313 74.4384 152.346C74.0455 152.412 73.4897 152.484 72.832 152.511C71.5224 152.565 69.778 152.439 68.108 151.693C66.4422 150.95 65.1937 149.776 64.3667 148.801C63.9518 148.312 63.6388 147.868 63.4286 147.545C63.3234 147.383 63.2437 147.251 63.1896 147.159C63.1625 147.112 63.1418 147.075 63.1275 147.05L63.1109 147.019L63.1062 147.011L63.1047 147.008L63.1042 147.007L63.104 147.007C63.1039 147.006 63.1039 147.006 63.5459 146.773M74.9499 151.733C75.3945 151.504 75.3944 151.504 75.3943 151.503L75.3941 151.503L75.3936 151.502L75.3922 151.499L75.3874 151.49L75.3708 151.459C75.3565 151.433 75.3359 151.395 75.3088 151.348C75.2547 151.253 75.175 151.118 75.0697 150.952C74.8595 150.622 74.5463 150.17 74.1308 149.675C73.3042 148.69 72.0536 147.513 70.3828 146.81C68.7143 146.066 66.972 145.941 65.6638 145.994C65.0061 146.021 64.4503 146.093 64.0574 146.159C63.8607 146.192 63.7042 146.224 63.5956 146.248C63.5412 146.259 63.4988 146.269 63.4692 146.276L63.4345 146.285L63.4246 146.287L63.4216 146.288L63.4205 146.288L63.4201 146.289C63.42 146.289 63.4198 146.289 63.5459 146.773M63.5459 146.773L63.1039 147.006L62.8087 146.448L63.4198 146.289L63.5459 146.773Z" fill="#E8C513" stroke="#E8C513"/>
<path d="M91.1138 155.708C91.6015 155.598 91.6014 155.597 91.6014 155.597L91.6013 155.597L91.6011 155.596L91.6004 155.593L91.5981 155.583L91.59 155.549C91.5829 155.521 91.5725 155.48 91.5585 155.428C91.5305 155.324 91.488 155.175 91.4289 154.992C91.3106 154.624 91.1251 154.113 90.8541 153.533C90.3141 152.377 89.4231 150.92 88.0254 149.781L88.0255 149.781L88.018 149.776C86.6193 148.68 84.9878 148.12 83.7252 147.832C83.0909 147.687 82.5418 147.61 82.1497 147.568C81.9535 147.547 81.7961 147.535 81.6864 147.528C81.6315 147.525 81.5885 147.523 81.5585 147.522L81.5234 147.52L81.5134 147.52L81.5104 147.52L81.5093 147.52L81.5089 147.52C81.5088 147.52 81.5086 147.52 81.4971 148.02M91.1138 155.708C91.1022 156.208 91.1021 156.208 91.1019 156.208L91.1015 156.208L91.1005 156.208L91.0974 156.208L91.0874 156.207L91.0523 156.206C91.0223 156.205 90.9794 156.203 90.9245 156.199C90.8148 156.193 90.6574 156.181 90.4612 156.16C90.0691 156.118 89.52 156.04 88.8856 155.896C87.6231 155.608 85.9916 155.048 84.5929 153.952L84.5853 153.946L84.5854 153.946C83.1877 152.807 82.2967 151.351 81.7568 150.195C81.4858 149.614 81.3002 149.104 81.182 148.736C81.1228 148.552 81.0803 148.404 81.0523 148.3C81.0383 148.248 81.0279 148.207 81.0209 148.178L81.0127 148.144L81.0105 148.135L81.0098 148.132L81.0095 148.131L81.0094 148.13C81.0094 148.13 81.0094 148.13 81.4971 148.02M91.1138 155.708L91.6015 155.598L91.7427 156.223L91.1022 156.208L91.1138 155.708ZM81.4971 148.02L81.0094 148.13L80.8682 147.505L81.5086 147.52L81.4971 148.02Z" fill="#E8C513" stroke="#E8C513"/>
<path d="M90.2678 157.774L90.5584 158.181L91.0802 157.809L90.5916 157.393L90.2678 157.774ZM90.2678 157.774C90.5584 158.181 90.5583 158.181 90.5581 158.182L90.5578 158.182L90.5569 158.182L90.5544 158.184L90.5461 158.19L90.5172 158.21C90.4924 158.227 90.4567 158.251 90.4108 158.281C90.319 158.341 90.1859 158.426 90.0163 158.526C89.6774 158.725 89.1906 158.988 88.5937 159.246C87.4063 159.759 85.7552 160.262 83.952 160.175C82.1427 160.13 80.5326 159.473 79.3886 158.843C78.8133 158.526 78.3483 158.211 78.026 157.975C77.8646 157.857 77.7386 157.758 77.6517 157.688C77.6083 157.652 77.5746 157.624 77.5513 157.605L77.524 157.581L77.5162 157.575L77.5138 157.572L77.513 157.572L77.5127 157.571C77.5125 157.571 77.5124 157.571 77.8428 157.196M90.2678 157.774C90.5916 157.393 90.5915 157.393 90.5914 157.393L90.591 157.393L90.5902 157.392L90.5879 157.39L90.5801 157.384L90.5529 157.361C90.5296 157.342 90.496 157.315 90.4527 157.281C90.366 157.213 90.2401 157.118 90.079 157.003C89.7572 156.774 89.293 156.468 88.7188 156.157C87.5754 155.538 85.9686 154.883 84.1646 154.795C82.3591 154.708 80.7056 155.211 79.5169 155.724C78.9199 155.982 78.4332 156.245 78.0943 156.445C77.9247 156.545 77.7916 156.629 77.6998 156.689C77.6539 156.719 77.6182 156.743 77.5934 156.76L77.5645 156.78L77.5562 156.786L77.5537 156.788L77.5528 156.789L77.5525 156.789C77.5523 156.789 77.5522 156.789 77.8428 157.196M77.8428 157.196L77.5124 157.571L77.0396 157.155L77.5522 156.789L77.8428 157.196Z" fill="#E8C513" stroke="#E8C513"/>
<path d="M85.8418 66.5119L85.3714 66.3424L85.1631 66.9205L85.7714 67.0069L85.8418 66.5119ZM85.8418 66.5119C85.7714 67.0069 85.7716 67.007 85.7718 67.007L85.7722 67.007L85.7732 67.0072L85.7763 67.0076L85.7863 67.009L85.8211 67.0134C85.8508 67.017 85.8933 67.0219 85.9475 67.0273C86.0561 67.0382 86.2121 67.0515 86.4076 67.0616C86.7983 67.0819 87.349 67.0899 87.996 67.0415C89.2849 66.9452 90.9839 66.6233 92.5614 65.7039C94.1423 64.7824 95.2369 63.4527 95.9323 62.3697C96.2814 61.8261 96.5338 61.3386 96.6996 60.9854C96.7826 60.8086 96.8441 60.6649 96.8854 60.564C96.906 60.5136 96.9217 60.4738 96.9324 60.4458L96.9448 60.4129L96.9483 60.4034L96.9494 60.4004L96.9498 60.3994L96.9499 60.399C96.95 60.3988 96.9501 60.3987 96.4797 60.2292M85.8418 66.5119C85.3714 66.3424 85.3715 66.3423 85.3715 66.3421L85.3717 66.3417L85.372 66.3407L85.3731 66.3377L85.3766 66.3282L85.3891 66.2953C85.3998 66.2673 85.4154 66.2275 85.4361 66.177C85.4774 66.0761 85.5389 65.9325 85.6219 65.7557C85.7877 65.4024 86.0401 64.915 86.3891 64.3714C87.0846 63.2884 88.1791 61.9586 89.7601 61.0372C91.3375 60.1178 93.0366 59.7959 94.3255 59.6996C94.9724 59.6512 95.5231 59.6592 95.9138 59.6795C96.1094 59.6896 96.2654 59.7028 96.3739 59.7137C96.4282 59.7192 96.4707 59.7241 96.5003 59.7277L96.5351 59.7321L96.5451 59.7335L96.5482 59.7339L96.5493 59.734L96.5497 59.7341C96.5499 59.7341 96.55 59.7341 96.4797 60.2292M96.4797 60.2292L96.9501 60.3987L97.1583 59.8206L96.55 59.7341L96.4797 60.2292Z" fill="#E8C513" stroke="#E8C513"/>
<path d="M120.513 135.102H175.873" stroke="#F87C82" stroke-width="6" stroke-miterlimit="10" stroke-linecap="round"/>
<path d="M111.627 148.854H184.757" stroke="#F87C82" stroke-width="6" stroke-miterlimit="10" stroke-linecap="round"/>
</g>
<defs>
<filter id="filter0_d" x="0.484375" y="0.312744" width="305.069" height="213.641" filterUnits="userSpaceOnUse" color-interpolation-filters="sRGB">
<feFlood flood-opacity="0" result="BackgroundImageFix"/>
<feColorMatrix in="SourceAlpha" type="matrix" values="0 0 0 0 0 0 0 0 0 0 0 0 0 0 0 0 0 0 127 0"/>
<feOffset dx="8" dy="2"/>
<feGaussianBlur stdDeviation="15"/>
<feColorMatrix type="matrix" values="0 0 0 0 0.254167 0 0 0 0 0.137674 0 0 0 0 0.137674 0 0 0 0.15 0"/>
<feBlend mode="normal" in2="BackgroundImageFix" result="effect1_dropShadow"/>
<feBlend mode="normal" in="SourceGraphic" in2="effect1_dropShadow" result="shape"/>
</filter>
</defs>
</svg>
