<svg width="201" height="259" viewBox="0 0 201 259" fill="none" xmlns="http://www.w3.org/2000/svg">
<g filter="url(#filter0_d)">
<rect x="22.4082" y="28.9937" width="139.856" height="197.744" fill="#F87C82"/>
<path d="M155.12 196.268V59.4636C143.506 58.5361 134.083 48.5656 132.987 36.0446H51.6859C50.8093 48.5656 41.3863 58.5361 29.5527 59.4636V196.268C41.3863 197.427 50.8093 207.397 51.6859 219.687H132.987C134.083 207.397 143.506 197.427 155.12 196.268Z" fill="white"/>
<path d="M105.46 65.0316C105.08 63.9434 104.018 63.1687 102.767 63.1687H81.9075C80.656 63.1687 79.613 63.9434 79.2148 65.0316L75.2705 76.0799V90.8355C75.2705 91.8499 76.1238 92.6799 77.1668 92.6799H79.0631C80.1061 92.6799 80.9594 91.8499 80.9594 90.8355V88.991H103.715V90.8355C103.715 91.8499 104.568 92.6799 105.611 92.6799H107.508C108.551 92.6799 109.404 91.8499 109.404 90.8355V76.0799L105.46 65.0316ZM81.9075 83.4577C80.3336 83.4577 79.0631 82.2219 79.0631 80.691C79.0631 79.1601 80.3336 77.9243 81.9075 77.9243C83.4815 77.9243 84.752 79.1601 84.752 80.691C84.752 82.2219 83.4815 83.4577 81.9075 83.4577ZM102.767 83.4577C101.193 83.4577 99.9224 82.2219 99.9224 80.691C99.9224 79.1601 101.193 77.9243 102.767 77.9243C104.341 77.9243 105.611 79.1601 105.611 80.691C105.611 82.2219 104.341 83.4577 102.767 83.4577ZM79.0631 74.2354L81.9075 65.9354H102.767L105.611 74.2354H79.0631Z" fill="#F27C8B"/>
<path d="M52.666 125.645H132.006" stroke="#F87C82" stroke-width="6" stroke-miterlimit="10" stroke-linecap="round" stroke-linejoin="round"/>
<path d="M52.667 141.106H132.007" stroke="#F87C82" stroke-width="6" stroke-miterlimit="10" stroke-linecap="round" stroke-linejoin="round"/>
<path d="M52.667 156.566H132.007" stroke="#F87C82" stroke-width="6" stroke-miterlimit="10" stroke-linecap="round" stroke-linejoin="round"/>
<path d="M52.667 172.026H132.007" stroke="#F87C82" stroke-width="6" stroke-miterlimit="10" stroke-linecap="round" stroke-linejoin="round"/>
<path d="M123.762 62.0715L123.891 62.3966L124.304 62.2323L124.048 61.8696L123.762 62.0715ZM123.762 62.0715C123.891 62.3966 123.891 62.3966 123.891 62.3967L123.891 62.3968L123.89 62.397L123.889 62.3976L123.884 62.3996L123.867 62.4058C123.854 62.411 123.834 62.4182 123.809 62.4269C123.759 62.4444 123.688 62.4682 123.599 62.495C123.42 62.5484 123.166 62.6141 122.862 62.6646C122.258 62.765 121.434 62.8088 120.599 62.5593C119.764 62.3098 119.11 61.8247 118.669 61.4117C118.448 61.204 118.277 61.0113 118.16 60.8695C118.102 60.7985 118.057 60.7399 118.026 60.6982C118.011 60.6774 117.999 60.6607 117.99 60.6488L117.98 60.6346L117.977 60.6302L117.976 60.6288L117.976 60.6283L117.976 60.628C117.976 60.6279 117.976 60.6278 118.266 60.4317M123.762 62.0715C124.048 61.8696 124.048 61.8695 124.048 61.8694L124.047 61.8692L124.047 61.8687L124.046 61.8673L124.043 61.8631L124.033 61.8491C124.024 61.8374 124.012 61.8209 123.996 61.8002C123.964 61.7589 123.918 61.7007 123.859 61.63C123.74 61.4889 123.565 61.297 123.342 61.0901C122.898 60.6791 122.245 60.1944 121.43 59.9446L121.43 59.9446L121.428 59.9438C120.593 59.6944 119.77 59.7382 119.165 59.8386C118.861 59.8891 118.607 59.9547 118.429 60.0082C118.339 60.035 118.268 60.0588 118.218 60.0763C118.193 60.085 118.174 60.0922 118.16 60.0974L118.144 60.1036L118.139 60.1055L118.137 60.1062L118.137 60.1064L118.136 60.1065C118.136 60.1066 118.136 60.1066 118.266 60.4317M118.266 60.4317L117.976 60.6278L117.732 60.2676L118.136 60.1066L118.266 60.4317ZM118.395 60.7571C118.395 60.7571 118.395 60.7571 118.395 60.757L118.395 60.7571Z" fill="#E8C513" stroke="#E8C513" stroke-width="0.7"/>
<path d="M124.348 61.2717L124.259 61.6104L124.666 61.7164L124.697 61.2974L124.348 61.2717ZM124.348 61.2717C124.697 61.2974 124.697 61.2973 124.697 61.2972L124.697 61.2969L124.697 61.2962L124.697 61.2945L124.697 61.2892L124.698 61.2718C124.699 61.2572 124.7 61.2368 124.701 61.2109C124.702 61.1592 124.703 61.0857 124.701 60.9943C124.697 60.8117 124.681 60.5561 124.634 60.2589C124.541 59.668 124.32 58.8924 123.803 58.2021C123.289 57.5154 122.611 57.0659 122.073 56.7898C121.803 56.6509 121.563 56.5535 121.39 56.4905C121.304 56.4589 121.233 56.4358 121.184 56.4204C121.159 56.4127 121.139 56.4069 121.125 56.4028L121.109 56.3981L121.104 56.3967L121.102 56.3963L121.101 56.3961L121.101 56.396C121.101 56.396 121.101 56.396 121.011 56.7341M124.348 61.2717C124.259 61.6104 124.259 61.6104 124.259 61.6104L124.259 61.6103L124.258 61.6101L124.257 61.6097L124.251 61.6083L124.234 61.6036C124.22 61.5996 124.2 61.5938 124.175 61.5861C124.124 61.5707 124.052 61.5477 123.964 61.5161C123.788 61.4531 123.544 61.3557 123.271 61.2167C122.729 60.941 122.049 60.4909 121.553 59.8009C121.037 59.1113 120.817 58.3371 120.724 57.7469C120.677 57.4497 120.661 57.1942 120.657 57.0116C120.655 56.9202 120.656 56.8467 120.658 56.795C120.658 56.7691 120.659 56.7486 120.66 56.7341L120.661 56.7167L120.661 56.7114L120.661 56.7096L120.661 56.709L120.661 56.7087C120.662 56.7086 120.662 56.7085 121.011 56.7341M121.011 56.7341L121.101 56.396L120.693 56.2869L120.662 56.7085L121.011 56.7341ZM121.36 56.7592C121.36 56.7591 121.36 56.7591 121.36 56.7592L121.36 56.7592Z" fill="#E8C513" stroke="#E8C513" stroke-width="0.7"/>
<path d="M128.789 66.0739L128.869 66.4145L129.295 66.3136L129.103 65.9205L128.789 66.0739ZM128.789 66.0739C128.869 66.4145 128.869 66.4145 128.869 66.4145L128.869 66.4146L128.868 66.4147L128.866 66.4151L128.861 66.4163L128.844 66.4201C128.83 66.4232 128.809 66.4275 128.783 66.4325C128.732 66.4426 128.658 66.4558 128.565 66.4691C128.38 66.4959 128.12 66.5237 127.813 66.5287C127.203 66.5387 126.388 66.4596 125.614 66.0845C124.825 65.7109 124.246 65.1351 123.868 64.6624C123.678 64.4246 123.536 64.2092 123.44 64.0522C123.393 63.9736 123.356 63.9092 123.332 63.8636C123.319 63.8408 123.31 63.8226 123.303 63.8097L123.295 63.7942L123.293 63.7895L123.292 63.7879L123.292 63.7874L123.292 63.7871C123.292 63.787 123.292 63.7869 123.606 63.6335M128.789 66.0739C129.103 65.9205 129.103 65.9204 129.103 65.9203L129.103 65.92L129.103 65.9194L129.102 65.9179L129.099 65.9132L129.092 65.8977C129.085 65.8847 129.075 65.8666 129.063 65.8438C129.038 65.7981 129.002 65.7338 128.955 65.6552C128.859 65.4982 128.717 65.2828 128.527 65.045C128.149 64.572 127.569 63.9957 126.779 63.6221L126.779 63.6221L126.775 63.6204C126.005 63.267 125.192 63.1879 124.585 63.1929C124.279 63.1955 124.02 63.2194 123.836 63.2428C123.744 63.2545 123.67 63.2662 123.619 63.2752C123.593 63.2796 123.572 63.2834 123.558 63.2862L123.541 63.2896L123.536 63.2906L123.535 63.291L123.534 63.2911L123.534 63.2911C123.534 63.2912 123.533 63.2912 123.606 63.6335M123.606 63.6335L123.292 63.7869L123.096 63.3845L123.533 63.2912L123.606 63.6335ZM123.679 63.9759C123.679 63.9759 123.679 63.9759 123.679 63.9759L123.679 63.9759Z" fill="#E8C513" stroke="#E8C513" stroke-width="0.7"/>
<path d="M129.531 65.3521C129.874 65.421 129.874 65.4209 129.874 65.4208L129.874 65.4205L129.874 65.4199L129.875 65.4182L129.876 65.4132L129.879 65.3964C129.881 65.3822 129.885 65.3623 129.889 65.337C129.897 65.2865 129.907 65.2145 129.917 65.1244C129.937 64.9445 129.955 64.6912 129.95 64.3926C129.939 63.7992 129.836 63.0064 129.449 62.2556L129.45 62.2555L129.446 62.2487C129.039 61.4991 128.434 60.957 127.943 60.6058C127.697 60.429 127.474 60.2976 127.312 60.2098C127.231 60.1658 127.165 60.1326 127.118 60.11C127.095 60.0987 127.076 60.0901 127.063 60.084L127.047 60.0769L127.043 60.0748L127.041 60.0741L127.041 60.0738L127.04 60.0737C127.04 60.0737 127.04 60.0737 126.901 60.3947M129.531 65.3521C129.391 65.6731 129.391 65.673 129.391 65.673L129.391 65.6729L129.39 65.6726L129.389 65.6719L129.384 65.6698L129.368 65.6627C129.355 65.6567 129.336 65.648 129.313 65.6367C129.266 65.6141 129.2 65.5809 129.119 65.5369C128.957 65.4491 128.735 65.3177 128.488 65.1409C127.997 64.7897 127.393 64.2476 126.986 63.4981L126.982 63.4912L126.982 63.4911C126.595 62.7403 126.492 61.9475 126.482 61.3541C126.477 61.0555 126.495 60.8022 126.515 60.6223C126.525 60.5322 126.535 60.4602 126.543 60.4097C126.547 60.3844 126.55 60.3645 126.553 60.3504L126.556 60.3336L126.557 60.3285L126.557 60.3268L126.557 60.3262L126.557 60.3259C126.557 60.3258 126.557 60.3257 126.901 60.3947M129.531 65.3521L129.874 65.421L129.789 65.8457L129.391 65.6731L129.531 65.3521ZM126.901 60.3947L126.557 60.3257L126.643 59.901L127.04 60.0737L126.901 60.3947ZM127.244 60.4631L127.244 60.4631L127.244 60.4631Z" fill="#E8C513" stroke="#E8C513" stroke-width="0.7"/>
<path d="M132.007 71.756L131.975 72.1046L132.407 72.1446L132.354 71.7135L132.007 71.756ZM132.007 71.756C131.975 72.1046 131.975 72.1046 131.975 72.1045L131.974 72.1045L131.974 72.1045L131.972 72.1043L131.967 72.1038L131.949 72.1019C131.935 72.1003 131.914 72.0978 131.888 72.0944C131.836 72.0875 131.762 72.0765 131.67 72.06C131.486 72.027 131.23 71.9714 130.937 71.8807C130.354 71.7004 129.602 71.3746 128.98 70.791C128.358 70.2076 127.99 69.4867 127.778 68.9241C127.672 68.641 127.603 68.393 127.56 68.2146C127.539 68.1253 127.524 68.0531 127.514 68.0022C127.509 67.9767 127.506 67.9566 127.503 67.9422L127.501 67.9252L127.5 67.9201L127.5 67.9184L127.499 67.9177L127.499 67.9175C127.499 67.9174 127.499 67.9173 127.846 67.8663M132.007 71.756C132.354 71.7135 132.354 71.7134 132.354 71.7132L132.354 71.713L132.354 71.7123L132.354 71.7105L132.353 71.7053L132.351 71.688C132.349 71.6735 132.346 71.6531 132.342 71.6275C132.333 71.5762 132.32 71.5035 132.3 71.4137C132.26 71.2344 132.195 70.9853 132.09 70.701C131.882 70.1361 131.514 69.4136 130.87 68.8293C130.249 68.247 129.498 67.9218 128.916 67.7417C128.623 67.6509 128.367 67.5954 128.183 67.5624C128.091 67.5458 128.017 67.5349 127.965 67.528C127.939 67.5245 127.918 67.5221 127.903 67.5205L127.886 67.5186L127.881 67.5181L127.879 67.5179L127.878 67.5179L127.878 67.5178C127.878 67.5178 127.878 67.5178 127.846 67.8663M127.846 67.8663L127.878 67.5178L127.435 67.4768L127.499 67.9173L127.846 67.8663ZM128.192 67.8149L128.192 67.8149L128.192 67.8149Z" fill="#E8C513" stroke="#E8C513" stroke-width="0.7"/>
<path d="M132.91 71.225L132.679 71.4881L132.994 71.7646L133.21 71.4052L132.91 71.225ZM132.91 71.225C133.21 71.4052 133.21 71.4051 133.21 71.405L133.21 71.4048L133.211 71.4043L133.212 71.4028L133.214 71.3983L133.223 71.3834C133.23 71.3709 133.24 71.3531 133.252 71.3306C133.277 71.2854 133.311 71.2207 133.35 71.1388C133.429 70.9753 133.531 70.7418 133.625 70.4579C133.812 69.8938 133.974 69.1102 133.845 68.2735C133.715 67.4331 133.307 66.7314 132.945 66.2483C132.762 66.005 132.587 65.8122 132.457 65.6796C132.392 65.6131 132.338 65.5615 132.299 65.5257C132.28 65.5078 132.264 65.4939 132.253 65.4841L132.24 65.4725L132.236 65.4691L132.235 65.4679L132.234 65.4675L132.234 65.4673C132.234 65.4673 132.234 65.4672 132.007 65.7339M132.91 71.225C132.679 71.4881 132.679 71.4881 132.679 71.488L132.679 71.4878L132.678 71.4874L132.677 71.4863L132.673 71.4828L132.66 71.4712C132.65 71.4615 132.635 71.4476 132.616 71.4297C132.579 71.3941 132.526 71.3425 132.463 71.2761C132.336 71.1437 132.165 70.9514 131.986 70.7087C131.629 70.2266 131.224 69.5285 131.074 68.6941L131.072 68.6854L131.072 68.6854C130.943 67.8487 131.105 67.0652 131.292 66.501C131.386 66.2171 131.488 65.9836 131.567 65.8201C131.606 65.7382 131.64 65.6735 131.665 65.6284C131.677 65.6058 131.687 65.5881 131.694 65.5755L131.703 65.5606L131.706 65.5562L131.707 65.5547L131.707 65.5541L131.707 65.5539C131.707 65.5538 131.707 65.5537 132.007 65.7339M132.007 65.7339L132.234 65.4672L131.92 65.2L131.707 65.5537L132.007 65.7339Z" fill="#E8C513" stroke="#E8C513" stroke-width="0.7"/>
<path d="M133.773 78.6211C134.12 78.6637 134.12 78.6636 134.12 78.6635L134.12 78.6632L134.12 78.6626L134.121 78.6609L134.121 78.6557L134.123 78.6386C134.125 78.6241 134.127 78.6038 134.129 78.5781C134.133 78.5266 134.138 78.4533 134.141 78.362C134.146 78.1796 134.145 77.9236 134.116 77.6248C134.059 77.0314 133.893 76.2468 133.44 75.5353C132.988 74.8235 132.339 74.3317 131.818 74.0211C131.555 73.8646 131.32 73.7509 131.149 73.6759C131.064 73.6384 130.994 73.6104 130.945 73.5915C130.92 73.582 130.901 73.5748 130.887 73.5698L130.87 73.564L130.865 73.5622L130.864 73.5617L130.863 73.5615L130.863 73.5614C130.863 73.5614 130.863 73.5613 130.75 73.8927M133.773 78.6211C133.66 78.9525 133.66 78.9525 133.66 78.9524L133.66 78.9523L133.659 78.9521L133.658 78.9516L133.653 78.9499L133.636 78.944C133.622 78.939 133.603 78.9318 133.578 78.9223C133.529 78.9034 133.459 78.8754 133.374 78.8379C133.203 78.763 132.968 78.6493 132.705 78.4928C132.185 78.1826 131.537 77.6918 131.085 76.9817C130.611 76.2683 130.444 75.4815 130.392 74.886C130.365 74.5859 130.368 74.3288 130.377 74.1456C130.382 74.0538 130.388 73.9801 130.393 73.9283C130.396 73.9024 130.399 73.8819 130.4 73.8673L130.403 73.85L130.403 73.8447L130.404 73.8429L130.404 73.8423L130.404 73.842C130.404 73.8419 130.404 73.8418 130.75 73.8927M133.773 78.6211L134.12 78.6637L134.068 79.0911L133.66 78.9525L133.773 78.6211ZM130.75 73.8927L130.863 73.5613L130.465 73.4261L130.404 73.8418L130.75 73.8927Z" fill="#E8C513" stroke="#E8C513" stroke-width="0.7"/>
<path d="M134.791 78.3937C135.039 78.6406 135.039 78.6405 135.039 78.6404L135.039 78.6403L135.04 78.6398L135.041 78.6386L135.045 78.6349L135.057 78.6225C135.067 78.6121 135.081 78.5972 135.098 78.5782C135.133 78.5402 135.182 78.4853 135.24 78.4151C135.357 78.275 135.513 78.0724 135.675 77.8194C135.996 77.3169 136.349 76.5968 136.435 75.7603L136.435 75.7603L136.435 75.7514C136.5 74.9156 136.285 74.1441 136.063 73.5918C135.951 73.3137 135.835 73.086 135.746 72.9268C135.702 72.8471 135.664 72.7842 135.637 72.7405C135.624 72.7186 135.613 72.7014 135.605 72.6893L135.596 72.675L135.593 72.6707L135.592 72.6693L135.591 72.6688L135.591 72.6686C135.591 72.6685 135.591 72.6684 135.301 72.8645M134.791 78.3937C134.501 78.5898 134.501 78.5897 134.501 78.5896L134.501 78.5894L134.5 78.5889L134.499 78.5875L134.497 78.5832L134.487 78.5689C134.479 78.5568 134.468 78.5396 134.455 78.5177C134.428 78.474 134.39 78.4111 134.346 78.3314C134.257 78.1722 134.141 77.9445 134.029 77.6664C133.807 77.1141 133.592 76.3426 133.657 75.5068L133.657 75.4979L133.658 75.4979C133.744 74.6614 134.097 73.9413 134.417 73.4388C134.579 73.1858 134.735 72.9833 134.852 72.8431C134.91 72.7729 134.959 72.718 134.994 72.68C135.012 72.661 135.026 72.6461 135.036 72.6357L135.048 72.6233L135.051 72.6196L135.052 72.6184L135.053 72.6179L135.053 72.6178C135.053 72.6177 135.053 72.6176 135.301 72.8645M134.791 78.3937L135.039 78.6406L134.739 78.9418L134.501 78.5898L134.791 78.3937ZM135.301 72.8645L135.053 72.6176L135.353 72.3164L135.591 72.6684L135.301 72.8645ZM135.55 73.1111C135.55 73.111 135.55 73.111 135.55 73.111L135.55 73.1111Z" fill="#E8C513" stroke="#E8C513" stroke-width="0.7"/>
<path d="M132.673 85.5627L132.46 85.8406L132.789 86.0922L132.982 85.7262L132.673 85.5627ZM132.673 85.5627C132.46 85.8406 132.46 85.8405 132.46 85.8405L132.46 85.8403L132.459 85.8399L132.458 85.8388L132.454 85.8356L132.44 85.8247C132.429 85.8155 132.413 85.8025 132.392 85.7857C132.352 85.7522 132.296 85.7037 132.228 85.6409C132.093 85.5157 131.91 85.3329 131.716 85.0995C131.333 84.6358 130.893 83.9552 130.721 83.1165C130.549 82.2816 130.668 81.4886 130.824 80.9142C130.902 80.6253 130.991 80.3868 131.061 80.2193C131.096 80.1355 131.126 80.0691 131.148 80.0228C131.159 79.9996 131.168 79.9814 131.174 79.9685L131.182 79.9532L131.185 79.9486L131.185 79.9471L131.186 79.9465L131.186 79.9462C131.186 79.9461 131.186 79.946 131.495 80.1096M132.673 85.5627C132.982 85.7262 132.983 85.7261 132.983 85.726L132.983 85.7258L132.983 85.7252L132.984 85.7237L132.986 85.7191L132.994 85.7037C133.001 85.6909 133.009 85.6727 133.021 85.6495C133.043 85.6032 133.073 85.5368 133.108 85.4529C133.178 85.2855 133.266 85.047 133.345 84.7581C133.5 84.1837 133.62 83.3907 133.448 82.5558C133.275 81.7171 132.836 81.0365 132.452 80.5728C132.259 80.3394 132.076 80.1566 131.94 80.0313C131.872 79.9686 131.816 79.9201 131.776 79.8865C131.756 79.8698 131.74 79.8567 131.728 79.8476L131.715 79.8367L131.71 79.8335L131.709 79.8324L131.708 79.832L131.708 79.8318C131.708 79.8317 131.708 79.8317 131.495 80.1096M131.495 80.1096L131.708 79.8317L131.379 79.5801L131.186 79.946L131.495 80.1096ZM131.282 80.3872L131.282 80.3874L131.282 80.3873L131.282 80.3872ZM131.282 80.3872C131.282 80.3872 131.282 80.3872 131.282 80.3872L131.282 80.3872Z" fill="#E8C513" stroke="#E8C513" stroke-width="0.7"/>
<path d="M136.163 80.6812C136.502 80.5939 136.502 80.594 136.502 80.5942L136.502 80.5944L136.502 80.5951L136.503 80.5968L136.504 80.6019L136.508 80.6187C136.511 80.6327 136.516 80.6524 136.521 80.6774C136.532 80.7273 136.545 80.7985 136.559 80.8876C136.587 81.0655 136.616 81.3164 136.621 81.6141C136.631 82.2058 136.549 83.0004 136.163 83.7724C135.797 84.5249 135.212 85.0879 134.733 85.458C134.492 85.6446 134.272 85.7859 134.112 85.8811C134.032 85.9288 133.967 85.965 133.92 85.9898C133.897 86.0022 133.879 86.0118 133.865 86.0184L133.85 86.0263L133.845 86.0286L133.844 86.0293L133.843 86.0296L133.843 86.0297C133.843 86.0297 133.843 86.0298 133.69 85.715M136.163 80.6812C136.01 80.3663 136.01 80.3664 136.01 80.3664L136.01 80.3665L136.009 80.3668L136.008 80.3675L136.003 80.3698L135.987 80.3777C135.974 80.3843 135.956 80.3939 135.933 80.4063C135.886 80.4311 135.821 80.4673 135.741 80.515C135.581 80.6102 135.361 80.7515 135.12 80.9381C134.641 81.3079 134.057 81.8704 133.691 82.6219C133.303 83.3768 133.222 84.1729 133.232 84.7677C133.237 85.0675 133.266 85.3218 133.294 85.5022C133.307 85.5926 133.321 85.6649 133.332 85.7157C133.337 85.741 133.341 85.7611 133.344 85.7753L133.348 85.7922L133.35 85.7974L133.35 85.7991L133.35 85.7997L133.35 85.8C133.35 85.8001 133.35 85.8002 133.69 85.715M136.163 80.6812L136.502 80.5939L136.395 80.1793L136.01 80.3663L136.163 80.6812ZM133.69 85.715L133.843 86.0298L133.455 86.218L133.35 85.8002L133.69 85.715ZM135.824 80.7678C135.824 80.7677 135.824 80.7677 135.824 80.7677L135.824 80.7678Z" fill="#E8C513" stroke="#E8C513" stroke-width="0.7"/>
<path d="M129.69 92.6556L129.404 92.8574L129.652 93.2097L129.946 92.8939L129.69 92.6556ZM129.69 92.6556C129.946 92.8939 129.946 92.8938 129.946 92.8937L129.946 92.8935L129.947 92.8931L129.948 92.8918L129.951 92.8879L129.963 92.875C129.973 92.8641 129.986 92.8487 130.003 92.829C130.037 92.7896 130.084 92.7328 130.14 92.6601C130.252 92.5151 130.4 92.3057 130.552 92.0446C130.853 91.5256 131.174 90.7843 131.217 89.9276L131.217 89.9275C131.26 89.0915 131.024 88.3207 130.786 87.7695C130.667 87.4918 130.545 87.2645 130.452 87.1056C130.405 87.0261 130.366 86.9634 130.338 86.9198C130.323 86.8979 130.312 86.8809 130.304 86.8688L130.294 86.8546L130.291 86.8504L130.29 86.849L130.29 86.8485L130.29 86.8483C130.29 86.8482 130.29 86.8481 130.004 87.0499M129.69 92.6556C129.404 92.8574 129.404 92.8573 129.404 92.8572L129.403 92.857L129.403 92.8565L129.402 92.8551L129.399 92.8509L129.389 92.8366C129.381 92.8246 129.37 92.8075 129.356 92.7857C129.327 92.7421 129.288 92.6794 129.241 92.5999C129.149 92.441 129.026 92.2136 128.907 91.936C128.67 91.3847 128.433 90.6137 128.476 89.7776C128.52 88.9394 128.841 88.1982 129.141 87.6765C129.292 87.4136 129.44 87.2012 129.551 87.0537C129.607 86.9798 129.654 86.9218 129.687 86.8816C129.704 86.8615 129.717 86.8458 129.727 86.8348L129.738 86.8217L129.742 86.8178L129.743 86.8165L129.743 86.816L129.743 86.8158C129.744 86.8158 129.744 86.8157 130.004 87.0499M130.004 87.0499L129.744 86.8157L130.037 86.4901L130.29 86.8481L130.004 87.0499Z" fill="#E8C513" stroke="#E8C513" stroke-width="0.7"/>
<path d="M130.63 93.0344L130.28 93.0258L130.269 93.457L130.694 93.3786L130.63 93.0344ZM130.63 93.0344C130.694 93.3786 130.694 93.3785 130.694 93.3785L130.694 93.3785L130.695 93.3784L130.696 93.378L130.702 93.3771L130.719 93.3736C130.733 93.3706 130.754 93.3662 130.78 93.3604C130.832 93.3486 130.906 93.3308 130.997 93.3057C131.178 93.2555 131.43 93.176 131.716 93.0574C132.283 92.822 133.005 92.4237 133.564 91.776C134.123 91.1293 134.406 90.3765 134.552 89.7973C134.625 89.506 134.664 89.2536 134.685 89.0729C134.695 88.9823 134.702 88.9094 134.705 88.858C134.707 88.8323 134.708 88.812 134.708 88.7976L134.709 88.7803L134.709 88.7751L134.709 88.7734L134.709 88.7727L134.709 88.7725C134.709 88.7724 134.709 88.7722 134.359 88.7637M130.63 93.0344C130.28 93.0258 130.28 93.0257 130.28 93.0256L130.28 93.0253L130.28 93.0247L130.28 93.023L130.28 93.0178L130.281 93.0005C130.282 92.9861 130.283 92.9657 130.284 92.9401C130.288 92.8887 130.294 92.8157 130.304 92.7252C130.325 92.5445 130.365 92.2921 130.438 92.0008C130.583 91.4216 130.866 90.6688 131.425 90.0221C131.984 89.3744 132.706 88.9761 133.273 88.7407C133.559 88.6221 133.811 88.5426 133.993 88.4924C134.084 88.4673 134.157 88.4495 134.209 88.4377C134.235 88.4318 134.256 88.4275 134.27 88.4245L134.288 88.421L134.293 88.42L134.295 88.4197L134.295 88.4196L134.295 88.4196C134.296 88.4195 134.296 88.4195 134.359 88.7637M134.359 88.7637L134.709 88.7722L134.72 88.341L134.296 88.4195L134.359 88.7637Z" fill="#E8C513" stroke="#E8C513" stroke-width="0.7"/>
<path d="M123.959 97.1935L123.614 97.2527L123.687 97.6786L124.088 97.5186L123.959 97.1935ZM123.959 97.1935C123.614 97.2527 123.614 97.2526 123.614 97.2524L123.614 97.2522L123.613 97.2516L123.613 97.2499L123.612 97.2448L123.61 97.2277C123.608 97.2133 123.605 97.1931 123.601 97.1674C123.595 97.1159 123.586 97.0426 123.579 96.9511C123.563 96.7684 123.552 96.5116 123.565 96.2107C123.591 95.6132 123.715 94.819 124.124 94.0864C124.533 93.3546 125.15 92.8223 125.649 92.4772C125.901 92.3033 126.128 92.1734 126.293 92.0866C126.376 92.0431 126.443 92.0102 126.491 91.9878C126.515 91.9766 126.534 91.968 126.547 91.962L126.563 91.955L126.568 91.953L126.569 91.9523L126.57 91.9521L126.57 91.952C126.57 91.9519 126.57 91.9519 126.707 92.2742M123.959 97.1935C124.088 97.5186 124.088 97.5186 124.088 97.5185L124.089 97.5184L124.089 97.5182L124.091 97.5175L124.096 97.5155L124.112 97.5088C124.126 97.5031 124.145 97.4949 124.169 97.4841C124.217 97.4626 124.285 97.431 124.368 97.3889C124.534 97.3048 124.762 97.1781 125.014 97.0061C125.516 96.6646 126.133 96.1315 126.542 95.3794C126.951 94.6474 127.075 93.8539 127.101 93.2569C127.114 92.956 127.102 92.6992 127.087 92.5165C127.079 92.425 127.071 92.3517 127.064 92.3003C127.061 92.2746 127.058 92.2543 127.056 92.2399L127.053 92.2229L127.052 92.2178L127.052 92.2161L127.052 92.2155L127.052 92.2152C127.052 92.2151 127.052 92.215 126.707 92.2742M126.707 92.2742L127.052 92.215L126.977 91.7797L126.57 91.9519L126.707 92.2742Z" fill="#E8C513" stroke="#E8C513" stroke-width="0.7"/>
<path d="M124.663 97.9534L124.352 97.7932L124.152 98.1818L124.575 98.292L124.663 97.9534ZM124.663 97.9534C124.575 98.292 124.575 98.2921 124.575 98.2921L124.575 98.2922L124.576 98.2923L124.578 98.2928L124.583 98.2941L124.6 98.2983C124.614 98.3017 124.635 98.3065 124.661 98.3121C124.712 98.3234 124.786 98.3383 124.879 98.3539C125.064 98.3851 125.326 98.4191 125.635 98.4318C126.25 98.4568 127.075 98.3982 127.868 98.0442C128.658 97.6915 129.248 97.136 129.636 96.6783C129.831 96.4482 129.979 96.2393 130.078 96.0868C130.127 96.0104 130.165 95.9479 130.191 95.9035C130.204 95.8813 130.214 95.8637 130.221 95.8511L130.229 95.836L130.232 95.8314L130.233 95.8299L130.233 95.8294L130.233 95.8291C130.233 95.829 130.233 95.8289 129.924 95.6653M124.663 97.9534C124.352 97.7932 124.352 97.7931 124.352 97.793L124.352 97.7927L124.352 97.7922L124.353 97.7906L124.356 97.7859L124.364 97.7705C124.371 97.7576 124.381 97.7395 124.394 97.7168C124.42 97.6713 124.457 97.6073 124.507 97.5293C124.606 97.3736 124.754 97.1606 124.95 96.9276C125.338 96.465 125.929 95.9073 126.722 95.573C127.515 95.2203 128.338 95.1619 128.952 95.1869C129.261 95.1996 129.522 95.2336 129.708 95.2648C129.8 95.2804 129.874 95.2953 129.926 95.3066C129.952 95.3122 129.972 95.317 129.987 95.3205L130.004 95.3246L130.009 95.3259L130.011 95.3264L130.011 95.3265L130.012 95.3266C130.012 95.3266 130.012 95.3267 129.924 95.6653M129.924 95.6653L130.233 95.8289L130.44 95.4381L130.012 95.3267L129.924 95.6653ZM124.974 98.114C124.974 98.1141 124.974 98.1141 124.974 98.114L124.974 98.114Z" fill="#E8C513" stroke="#E8C513" stroke-width="0.7"/>
<path d="M121.603 96.2399C121.595 95.89 121.595 95.89 121.595 95.89L121.594 95.89L121.594 95.89L121.592 95.89L121.587 95.8902L121.57 95.8908C121.556 95.8914 121.535 95.8924 121.51 95.8941C121.458 95.8973 121.385 95.9029 121.294 95.9128C121.113 95.9324 120.858 95.969 120.563 96.037C119.975 96.1722 119.207 96.4355 118.526 96.9525L118.526 96.9524L118.516 96.96C117.853 97.5006 117.432 98.1897 117.179 98.7325C117.051 99.0055 116.964 99.246 116.908 99.4194C116.88 99.5062 116.86 99.5765 116.847 99.6262C116.84 99.651 116.835 99.6707 116.831 99.6847L116.827 99.7014L116.826 99.7064L116.826 99.7081L116.826 99.7087L116.826 99.709C116.826 99.7091 116.826 99.7092 117.167 99.7863M121.603 96.2399C121.945 96.317 121.945 96.3171 121.944 96.3172L121.944 96.3175L121.944 96.3181L121.944 96.3198L121.943 96.3248L121.939 96.3415C121.935 96.3555 121.93 96.3752 121.924 96.4C121.91 96.4497 121.89 96.52 121.862 96.6068C121.806 96.7802 121.719 97.0207 121.591 97.2937C121.338 97.8365 120.917 98.5256 120.254 99.0662L120.249 99.0704L120.249 99.0704C119.584 99.5907 118.813 99.8544 118.221 99.9893C117.923 100.057 117.665 100.094 117.481 100.114C117.388 100.123 117.314 100.129 117.262 100.132C117.235 100.134 117.215 100.135 117.2 100.135L117.183 100.136L117.178 100.136L117.176 100.136L117.176 100.136L117.175 100.136C117.175 100.136 117.175 100.136 117.167 99.7863M121.603 96.2399L121.595 95.89L122.043 95.8793L121.945 96.317L121.603 96.2399ZM117.167 99.7863L117.175 100.136L116.727 100.147L116.826 99.7092L117.167 99.7863ZM117.508 99.864C117.508 99.8641 117.508 99.8641 117.508 99.864L117.508 99.864Z" fill="#E8C513" stroke="#E8C513" stroke-width="0.7"/>
<path d="M123.33 100.473L123.562 100.736L123.893 100.444L123.534 100.188L123.33 100.473ZM123.33 100.473C123.534 100.188 123.534 100.188 123.534 100.188L123.533 100.188L123.533 100.187L123.531 100.186L123.527 100.183L123.513 100.173C123.501 100.165 123.484 100.154 123.462 100.139C123.418 100.111 123.355 100.071 123.275 100.024C123.115 99.9294 122.886 99.8056 122.605 99.6844C122.047 99.4436 121.266 99.2047 120.408 99.2463C119.552 99.2879 118.793 99.5982 118.256 99.8887C117.986 100.035 117.768 100.179 117.617 100.287C117.541 100.341 117.481 100.386 117.44 100.418C117.419 100.435 117.403 100.448 117.392 100.457L117.378 100.468L117.374 100.471L117.373 100.472L117.372 100.473L117.372 100.473C117.372 100.473 117.372 100.473 117.599 100.74M123.33 100.473C123.562 100.736 123.561 100.736 123.561 100.736L123.561 100.736L123.561 100.736L123.559 100.737L123.555 100.741L123.542 100.752C123.53 100.762 123.514 100.776 123.494 100.792C123.452 100.826 123.392 100.873 123.316 100.929C123.164 101.04 122.946 101.188 122.675 101.337C122.138 101.633 121.377 101.945 120.516 101.967C119.661 102.007 118.881 101.769 118.324 101.528C118.043 101.407 117.814 101.283 117.654 101.189C117.574 101.142 117.511 101.102 117.467 101.073C117.445 101.059 117.428 101.047 117.416 101.039L117.402 101.029L117.398 101.026L117.396 101.025L117.396 101.025L117.395 101.025C117.395 101.025 117.395 101.025 117.599 100.74M117.599 100.74L117.372 100.473L117.03 100.764L117.395 101.025L117.599 100.74Z" fill="#E8C513" stroke="#E8C513" stroke-width="0.7"/>
<path d="M114.692 55.7424C114.366 55.8685 114.366 55.8686 114.366 55.8687L114.366 55.8689L114.366 55.8695L114.367 55.8711L114.369 55.8759L114.375 55.892C114.381 55.9055 114.389 55.9245 114.399 55.9484C114.42 55.9963 114.45 56.064 114.491 56.147C114.572 56.313 114.694 56.5415 114.861 56.7964C115.191 57.3028 115.707 57.9312 116.436 58.3687L116.436 58.3687L116.44 58.371C117.189 58.8074 117.992 58.9587 118.597 59.0039C118.901 59.0267 119.161 59.0229 119.345 59.0134C119.437 59.0086 119.511 59.0023 119.563 58.9971C119.589 58.9945 119.609 58.9922 119.624 58.9904L119.641 58.9882L119.646 58.9875L119.648 58.9873L119.648 58.9872L119.649 58.9872C119.649 58.9871 119.649 58.9871 119.6 58.6406M114.692 55.7424C114.643 55.3959 114.643 55.3959 114.643 55.3959L114.644 55.3958L114.644 55.3957L114.646 55.3955L114.651 55.3948L114.668 55.3926C114.683 55.3908 114.703 55.3885 114.729 55.3859C114.781 55.3807 114.855 55.3744 114.947 55.3696C115.132 55.3601 115.391 55.3563 115.695 55.3791C116.3 55.4243 117.104 55.5757 117.852 56.012C118.603 56.4498 119.121 57.0797 119.448 57.5887C119.612 57.8447 119.731 58.0743 119.809 58.241C119.848 58.3246 119.878 58.3927 119.897 58.4409C119.907 58.4651 119.915 58.4842 119.92 58.4979L119.926 58.5143L119.928 58.5192L119.929 58.5209L119.929 58.5215L119.929 58.5217C119.929 58.5219 119.929 58.522 119.6 58.6406M114.692 55.7424L114.366 55.8685L114.207 55.4578L114.643 55.3959L114.692 55.7424ZM119.6 58.6406L119.929 58.522L120.075 58.9266L119.649 58.9871L119.6 58.6406Z" fill="#E8C513" stroke="#E8C513" stroke-width="0.7"/>
<path d="M59.1826 62.0701L58.8967 61.8683L58.6407 62.2309L59.053 62.3953L59.1826 62.0701ZM59.1826 62.0701C59.053 62.3953 59.0531 62.3953 59.0533 62.3954L59.0535 62.3955L59.0541 62.3957L59.0557 62.3963L59.0606 62.3982L59.077 62.4045C59.0908 62.4097 59.1103 62.4169 59.1352 62.4256C59.1849 62.4431 59.256 62.4669 59.3455 62.4937C59.5244 62.5471 59.7781 62.6128 60.0822 62.6633C60.6867 62.7637 61.5105 62.8075 62.345 62.558C63.1799 62.3085 63.8344 61.8233 64.2752 61.4103C64.4968 61.2026 64.6678 61.0099 64.7843 60.868C64.8426 60.797 64.8874 60.7385 64.9182 60.6968C64.9337 60.6759 64.9456 60.6593 64.954 60.6474L64.964 60.6331L64.967 60.6288L64.968 60.6273L64.9683 60.6268L64.9685 60.6266C64.9686 60.6265 64.9686 60.6264 64.6787 60.4303M59.1826 62.0701C58.8967 61.8683 58.8967 61.8682 58.8968 61.8681L58.897 61.8679L58.8973 61.8674L58.8983 61.866L58.9013 61.8618L58.9115 61.8478C58.9201 61.8361 58.9324 61.8196 58.9483 61.7989C58.98 61.7576 59.026 61.6994 59.0857 61.6287C59.2048 61.4876 59.379 61.2957 59.6023 61.0888C60.0461 60.6777 60.6996 60.193 61.514 59.9431L61.5164 59.9424L61.5164 59.9424C62.3509 59.693 63.1746 59.7367 63.7791 59.8371C64.0832 59.8876 64.337 59.9533 64.5158 60.0068C64.6053 60.0335 64.6765 60.0573 64.7262 60.0748C64.751 60.0836 64.7705 60.0907 64.7843 60.0959L64.8007 60.1022L64.8056 60.1041L64.8072 60.1047L64.8078 60.105L64.8081 60.1051C64.8082 60.1051 64.8083 60.1052 64.6787 60.4303M64.6787 60.4303L64.9686 60.6264L65.2123 60.2662L64.8083 60.1052L64.6787 60.4303ZM59.4683 62.2724C59.4682 62.2724 59.4682 62.2724 59.4683 62.2723L59.4683 62.2724Z" fill="#E8C513" stroke="#E8C513" stroke-width="0.7"/>
<path d="M58.5936 61.2717L58.2445 61.2974L58.2753 61.7164L58.6818 61.6104L58.5936 61.2717ZM58.5936 61.2717C58.2445 61.2974 58.2445 61.2973 58.2445 61.2972L58.2445 61.2969L58.2444 61.2962L58.2443 61.2945L58.244 61.2892L58.243 61.2718C58.2422 61.2572 58.2413 61.2368 58.2405 61.2109C58.239 61.1592 58.238 61.0857 58.24 60.9943C58.2439 60.8117 58.2597 60.5561 58.3068 60.2589C58.4004 59.668 58.621 58.8924 59.1378 58.2021C59.652 57.5154 60.3301 57.0659 60.8676 56.7898C61.1381 56.6509 61.3776 56.5535 61.5506 56.4905C61.6373 56.4589 61.7076 56.4358 61.7572 56.4204C61.7821 56.4127 61.8017 56.4069 61.8157 56.4028L61.8324 56.3981L61.8374 56.3967L61.8391 56.3963L61.8397 56.3961L61.8399 56.396C61.8401 56.396 61.8402 56.396 61.9305 56.7341M58.5936 61.2717C58.6818 61.6104 58.6819 61.6104 58.6821 61.6104L58.6823 61.6103L58.6829 61.6101L58.6846 61.6097L58.6897 61.6083L58.7067 61.6036C58.721 61.5996 58.741 61.5938 58.7664 61.5861C58.817 61.5707 58.8888 61.5476 58.977 61.5161C59.1532 61.4531 59.3966 61.3557 59.6699 61.2167C60.2117 60.941 60.8923 60.4909 61.3884 59.8009C61.9037 59.1113 62.1238 58.3371 62.2173 57.7469C62.2644 57.4497 62.2801 57.1942 62.2841 57.0116C62.2861 56.9202 62.2851 56.8467 62.2835 56.795C62.2828 56.7691 62.2819 56.7486 62.2811 56.7341L62.2801 56.7167L62.2797 56.7114L62.2796 56.7096L62.2796 56.709L62.2796 56.7087C62.2795 56.7086 62.2795 56.7085 61.9305 56.7341M61.9305 56.7341L62.2795 56.7085L62.2485 56.2869L61.8402 56.396L61.9305 56.7341Z" fill="#E8C513" stroke="#E8C513" stroke-width="0.7"/>
<path d="M59.3412 63.6334L59.6558 63.7868L59.852 63.3844L59.4142 63.2911L59.3412 63.6334ZM59.3412 63.6334C59.4142 63.2911 59.4141 63.291 59.414 63.291L59.4138 63.291L59.4132 63.2908L59.4115 63.2905L59.4065 63.2895L59.3895 63.2861C59.3752 63.2833 59.3549 63.2795 59.3291 63.275C59.2776 63.2661 59.204 63.2544 59.1119 63.2427C58.9279 63.2192 58.6685 63.1953 58.3627 63.1928C57.7552 63.1878 56.9429 63.2669 56.1724 63.6203L56.1724 63.6203L56.1688 63.622C55.3783 63.9955 54.7989 64.5718 54.4207 65.0449C54.2306 65.2827 54.0884 65.498 53.9931 65.6551C53.9454 65.7337 53.9092 65.798 53.8845 65.8436C53.8722 65.8665 53.8627 65.8846 53.8561 65.8976L53.8482 65.9131L53.8459 65.9178L53.8451 65.9193L53.8448 65.9199L53.8447 65.9202C53.8446 65.9203 53.8446 65.9204 54.1592 66.0738M59.3412 63.6334C59.6558 63.7868 59.6558 63.7869 59.6557 63.787L59.6556 63.7872L59.6553 63.7878L59.6545 63.7894L59.6522 63.7941L59.6443 63.8096C59.6377 63.8225 59.6282 63.8407 59.6159 63.8635C59.5912 63.9091 59.555 63.9734 59.5073 64.0521C59.412 64.2091 59.2698 64.4244 59.0797 64.6622C58.7017 65.135 58.123 65.7108 57.3332 66.0844C56.5599 66.4595 55.7444 66.5386 55.1349 66.5286C54.8278 66.5235 54.5674 66.4958 54.3826 66.469C54.2901 66.4556 54.2162 66.4425 54.1644 66.4324C54.1384 66.4274 54.118 66.4231 54.1036 66.42L54.0864 66.4162L54.0813 66.415L54.0796 66.4146L54.079 66.4145L54.0787 66.4144C54.0786 66.4144 54.0785 66.4143 54.1592 66.0738M54.1592 66.0738L53.8446 65.9204L53.6529 66.3135L54.0785 66.4143L54.1592 66.0738Z" fill="#E8C513" stroke="#E8C513" stroke-width="0.7"/>
<path d="M56.0445 60.3945C55.905 60.0735 55.9049 60.0736 55.9048 60.0736L55.9046 60.0737L55.904 60.074L55.9025 60.0747L55.8977 60.0768L55.882 60.0839C55.8687 60.0899 55.8501 60.0986 55.8267 60.1099C55.78 60.1325 55.7138 60.1657 55.6328 60.2097C55.4711 60.2975 55.2486 60.4289 55.0017 60.6057C54.511 60.9569 53.9065 61.499 53.4993 62.2485L53.4992 62.2485L53.4957 62.2554C53.1092 63.0063 53.006 63.7991 52.9956 64.3925C52.9904 64.6911 53.0086 64.9444 53.0283 65.1243C53.0382 65.2144 53.0485 65.2864 53.0565 65.3369C53.0605 65.3622 53.0639 65.3821 53.0665 65.3962L53.0696 65.413L53.0706 65.4181L53.0709 65.4198L53.071 65.4204L53.0711 65.4207C53.0711 65.4208 53.0711 65.4209 53.4143 65.3519M56.0445 60.3945C56.3877 60.3256 56.3877 60.3257 56.3877 60.3258L56.3878 60.3261L56.3879 60.3267L56.3882 60.3284L56.3892 60.3334L56.3923 60.3502C56.3949 60.3644 56.3983 60.3843 56.4023 60.4096C56.4103 60.4601 56.4206 60.5321 56.4305 60.6222C56.4502 60.8021 56.4684 61.0554 56.4632 61.354C56.4528 61.9474 56.3496 62.7402 55.9632 63.491L55.9596 63.498L55.9595 63.4979C55.5523 64.2475 54.9478 64.7896 54.4571 65.1408C54.2102 65.3176 53.9877 65.449 53.826 65.5368C53.745 65.5808 53.6788 65.614 53.6321 65.6366C53.6087 65.6479 53.5901 65.6565 53.5769 65.6626L53.5611 65.6697L53.5564 65.6718L53.5548 65.6725L53.5542 65.6728L53.554 65.6729C53.5539 65.6729 53.5538 65.6729 53.4143 65.3519M56.0445 60.3945L55.905 60.0735L56.3024 59.9009L56.3877 60.3256L56.0445 60.3945ZM53.4143 65.3519L53.5538 65.6729L53.1564 65.8456L53.0711 65.4209L53.4143 65.3519Z" fill="#E8C513" stroke="#E8C513" stroke-width="0.7"/>
<path d="M50.9375 71.7558L50.5901 71.7132L50.5373 72.1443L50.9697 72.1043L50.9375 71.7558ZM50.9375 71.7558C50.9697 72.1043 50.9698 72.1043 50.97 72.1043L50.9702 72.1043L50.9708 72.1042L50.9725 72.1041L50.9777 72.1035L50.9951 72.1017C51.0097 72.1 51.0303 72.0976 51.0565 72.0941C51.1087 72.0872 51.1829 72.0763 51.2748 72.0598C51.4585 72.0268 51.7144 71.9712 52.0077 71.8804C52.5903 71.7001 53.3421 71.3743 53.9643 70.7908C54.5864 70.2073 54.9543 69.4864 55.1663 68.9238C55.273 68.6407 55.3421 68.3927 55.3847 68.2144C55.406 68.1251 55.4208 68.0528 55.4304 68.0019C55.4353 67.9765 55.4388 67.9563 55.4412 67.942L55.4439 67.9249L55.4447 67.9198L55.445 67.9181L55.4451 67.9175L55.4451 67.9172C55.4451 67.9171 55.4451 67.917 55.0989 67.8661M50.9375 71.7558C50.5901 71.7132 50.5901 71.7131 50.5901 71.713L50.5902 71.7127L50.5902 71.7121L50.5905 71.7103L50.5912 71.705L50.5936 71.6877C50.5956 71.6732 50.5987 71.6529 50.603 71.6272C50.6116 71.5759 50.625 71.5032 50.6448 71.4135C50.6843 71.2342 50.7498 70.9851 50.8544 70.7007C51.0621 70.1358 51.4307 69.4134 52.0743 68.8291C52.696 68.2468 53.4468 67.9216 54.0287 67.7415C54.322 67.6507 54.5779 67.5951 54.7615 67.5621C54.8535 67.5456 54.9277 67.5347 54.9799 67.5277C55.006 67.5243 55.0267 67.5219 55.0413 67.5202L55.0586 67.5184L55.0638 67.5178L55.0655 67.5177L55.0662 67.5176L55.0664 67.5176C55.0665 67.5176 55.0666 67.5176 55.0989 67.8661M55.0989 67.8661L55.4451 67.917L55.5099 67.4766L55.0666 67.5176L55.0989 67.8661Z" fill="#E8C513" stroke="#E8C513" stroke-width="0.7"/>
<path d="M50.0365 71.2247L49.7364 71.4049L49.9522 71.7642L50.2673 71.4878L50.0365 71.2247ZM50.0365 71.2247C49.7364 71.4049 49.7364 71.4048 49.7363 71.4047L49.7362 71.4044L49.7358 71.4039L49.7349 71.4024L49.7323 71.3979L49.7237 71.383C49.7165 71.3705 49.7065 71.3528 49.6942 71.3302C49.6696 71.2851 49.6356 71.2203 49.5961 71.1385C49.5172 70.9749 49.4154 70.7415 49.3214 70.4576C49.1347 69.8934 48.9725 69.1098 49.1017 68.2731C49.2315 67.4327 49.6393 66.731 50.0019 66.2479C50.1846 66.0046 50.3594 65.8119 50.4895 65.6792C50.5546 65.6128 50.6087 65.5611 50.6474 65.5254C50.6667 65.5075 50.6822 65.4936 50.6933 65.4838L50.7065 65.4722L50.7105 65.4687L50.7119 65.4676L50.7124 65.4672L50.7126 65.467C50.7127 65.4669 50.7127 65.4668 50.9394 65.7335M50.0365 71.2247C50.2673 71.4878 50.2674 71.4877 50.2675 71.4876L50.2677 71.4874L50.2681 71.487L50.2694 71.4859L50.2733 71.4825L50.2861 71.4709C50.2968 71.4611 50.3118 71.4472 50.3306 71.4294C50.3681 71.3937 50.4206 71.3421 50.484 71.2758C50.6105 71.1433 50.7811 70.951 50.9607 70.7083C51.3174 70.2262 51.7224 69.5282 51.8727 68.6937L51.8728 68.6937L51.8742 68.685C52.0034 67.8483 51.8411 67.0648 51.6544 66.5006C51.5605 66.2167 51.4587 65.9833 51.3798 65.8197C51.3402 65.7378 51.3063 65.6731 51.2817 65.628C51.2694 65.6054 51.2594 65.5877 51.2522 65.5752L51.2436 65.5603L51.2409 65.5558L51.24 65.5543L51.2397 65.5538L51.2396 65.5535C51.2395 65.5534 51.2395 65.5533 50.9394 65.7335M50.9394 65.7335L50.7127 65.4668L51.0271 65.1997L51.2395 65.5533L50.9394 65.7335ZM51.1664 65.9999C51.1665 65.9998 51.1665 65.9998 51.1665 65.9999L51.1664 65.9999Z" fill="#E8C513" stroke="#E8C513" stroke-width="0.7"/>
<path d="M52.1946 73.8922C52.542 73.8496 52.542 73.8497 52.5421 73.8499L52.5421 73.8501L52.5422 73.8508L52.5424 73.8525L52.543 73.8576L52.5448 73.8748C52.5463 73.8892 52.5482 73.9095 52.5503 73.9353C52.5545 73.9867 52.5593 74.06 52.5622 74.1514C52.5681 74.3338 52.5668 74.5897 52.5381 74.8885C52.4812 75.4815 52.3146 76.2652 51.8631 76.9762C51.4102 77.7084 50.7603 78.2011 50.2371 78.508C49.9735 78.6626 49.7372 78.773 49.5657 78.8451C49.4798 78.8812 49.4098 78.9079 49.3602 78.9259C49.3355 78.9349 49.3158 78.9417 49.3017 78.9465L49.285 78.952L49.2799 78.9537L49.2783 78.9542L49.2776 78.9544L49.2774 78.9545C49.2773 78.9545 49.2772 78.9546 49.1718 78.6208M52.1946 73.8922C52.082 73.5608 52.0819 73.5609 52.0818 73.5609L52.0815 73.561L52.0809 73.5612L52.0793 73.5618L52.0744 73.5635L52.0579 73.5693C52.044 73.5743 52.0245 73.5815 51.9999 73.591C51.9507 73.6099 51.8811 73.6379 51.7957 73.6754C51.625 73.7504 51.3897 73.8641 51.1272 74.0206C50.6062 74.3313 49.9572 74.823 49.5046 75.5348C49.0521 76.2464 48.8853 77.031 48.8283 77.6245C48.7996 77.9233 48.7983 78.1792 48.8042 78.3616C48.8071 78.453 48.8119 78.5263 48.8161 78.5777C48.8182 78.6035 48.8201 78.6238 48.8216 78.6382L48.8235 78.6554L48.8241 78.6606L48.8243 78.6623L48.8243 78.6629L48.8244 78.6632C48.8244 78.6633 48.8244 78.6634 49.1718 78.6208M52.1946 73.8922L52.542 73.8496L52.4896 73.4222L52.082 73.5608L52.1946 73.8922ZM49.1718 78.6208L49.2772 78.9546L48.8756 79.0813L48.8244 78.6634L49.1718 78.6208Z" fill="#E8C513" stroke="#E8C513" stroke-width="0.7"/>
<path d="M48.153 78.3935L47.9049 78.6403L48.2047 78.9416L48.4429 78.5896L48.153 78.3935ZM48.153 78.3935C47.9049 78.6403 47.9048 78.6403 47.9048 78.6402L47.9046 78.64L47.9041 78.6396L47.9029 78.6383L47.8993 78.6346L47.8873 78.6223C47.8773 78.6118 47.8633 78.597 47.8459 78.578C47.811 78.5399 47.7622 78.4851 47.7037 78.4149C47.587 78.2747 47.4306 78.0721 47.2691 77.8191C46.9484 77.3166 46.5955 76.5966 46.5093 75.76C46.4227 74.9188 46.6394 74.1431 46.8676 73.589C46.9825 73.3099 47.1026 73.0814 47.1947 72.9218C47.2408 72.8419 47.28 72.7788 47.3083 72.7349C47.3225 72.7129 47.3339 72.6957 47.3422 72.6836L47.352 72.6691L47.3551 72.6648L47.3561 72.6633L47.3564 72.6628L47.3566 72.6626C47.3567 72.6625 47.3567 72.6624 47.6426 72.8643M48.153 78.3935C48.4429 78.5896 48.4429 78.5895 48.443 78.5894L48.4432 78.5892L48.4435 78.5887L48.4445 78.5873L48.4473 78.583L48.4567 78.5686C48.4646 78.5565 48.4755 78.5394 48.4891 78.5175C48.5162 78.4737 48.5538 78.4109 48.5981 78.3312C48.6866 78.172 48.8025 77.9442 48.9144 77.6661C49.1367 77.1138 49.3516 76.3424 49.2871 75.5066L49.2872 75.5066L49.2863 75.4977C49.2002 74.6612 48.8473 73.9411 48.5265 73.4386C48.3651 73.1856 48.2087 72.983 48.0919 72.8428C48.0334 72.7726 47.9846 72.7178 47.9498 72.6798C47.9323 72.6607 47.9183 72.6459 47.9083 72.6355L47.8963 72.6231L47.8927 72.6194L47.8915 72.6182L47.8911 72.6177L47.8909 72.6175C47.8908 72.6174 47.8907 72.6174 47.6426 72.8643M47.6426 72.8643L47.3567 72.6624L47.5969 72.3221L47.8907 72.6174L47.6426 72.8643ZM47.3942 73.1108C47.3941 73.1107 47.3941 73.1107 47.3942 73.1108L47.3942 73.1108ZM47.9289 73.0657C47.9289 73.0656 47.9289 73.0656 47.9289 73.0657L47.9289 73.0657Z" fill="#E8C513" stroke="#E8C513" stroke-width="0.7"/>
<path d="M50.2688 85.5627L49.9593 85.7262L50.1528 86.0922L50.4815 85.8406L50.2688 85.5627ZM50.2688 85.5627C50.4815 85.8406 50.4816 85.8405 50.4817 85.8405L50.4819 85.8403L50.4824 85.8399L50.4838 85.8388L50.488 85.8356L50.5017 85.8247C50.5132 85.8155 50.5293 85.8025 50.5494 85.7857C50.5895 85.7522 50.6458 85.7037 50.7136 85.6409C50.8492 85.5157 51.0321 85.3329 51.2253 85.0995C51.6093 84.6358 52.0484 83.9552 52.2211 83.1165C52.393 82.2816 52.2736 81.4886 52.118 80.9142C52.0397 80.6253 51.9509 80.3868 51.8812 80.2193C51.8463 80.1355 51.816 80.0691 51.7939 80.0228C51.7829 79.9996 51.7739 79.9814 51.7674 79.9685L51.7596 79.9532L51.7572 79.9486L51.7564 79.9471L51.7561 79.9465L51.756 79.9462C51.7559 79.9461 51.7559 79.946 51.4465 80.1096M50.2688 85.5627C49.9593 85.7262 49.9593 85.7261 49.9592 85.726L49.9591 85.7258L49.9588 85.7252L49.958 85.7237L49.9556 85.7191L49.9478 85.7037C49.9413 85.6908 49.9323 85.6727 49.9213 85.6495C49.8993 85.6031 49.869 85.5368 49.834 85.4529C49.7643 85.2855 49.6755 85.047 49.5973 84.7581C49.4417 84.1837 49.3222 83.3907 49.4941 82.5558C49.6668 81.7171 50.1059 81.0365 50.4899 80.5728C50.6832 80.3394 50.8661 80.1566 51.0016 80.0313C51.0694 79.9686 51.1257 79.9201 51.1659 79.8865C51.1859 79.8698 51.202 79.8567 51.2135 79.8476L51.2273 79.8367L51.2314 79.8335L51.2328 79.8324L51.2333 79.832L51.2336 79.8318C51.2337 79.8317 51.2337 79.8317 51.4465 80.1096M51.4465 80.1096L51.7559 79.946L51.5624 79.5801L51.2337 79.8317L51.4465 80.1096ZM50.5785 85.3996C50.5785 85.3997 50.5785 85.3997 50.5784 85.3996L50.5785 85.3996Z" fill="#E8C513" stroke="#E8C513" stroke-width="0.7"/>
<path d="M46.7399 80.6812C46.399 80.6022 46.3989 80.6023 46.3989 80.6024L46.3989 80.6027L46.3987 80.6033L46.3983 80.6049L46.3972 80.61L46.3936 80.6265C46.3907 80.6404 46.3867 80.66 46.3821 80.6848C46.3728 80.7344 46.3606 80.8052 46.3484 80.8939C46.3241 81.0709 46.2993 81.3208 46.2967 81.6171C46.2915 82.2066 46.3738 82.998 46.7376 83.7672L46.7376 83.7672L46.7392 83.7706C47.1055 84.524 47.6907 85.0876 48.1698 85.458C48.4113 85.6446 48.6308 85.7859 48.7908 85.8811C48.8709 85.9288 48.9365 85.965 48.9829 85.9898C49.0061 86.0022 49.0245 86.0118 49.0376 86.0184L49.0532 86.0263L49.0578 86.0286L49.0593 86.0293L49.0599 86.0296L49.0601 86.0297C49.0602 86.0297 49.0603 86.0298 49.2132 85.715M46.7399 80.6812C46.8928 80.3663 46.8929 80.3664 46.893 80.3664L46.8933 80.3665L46.8938 80.3668L46.8953 80.3675L46.9 80.3698L46.9156 80.3777C46.9287 80.3843 46.9471 80.3939 46.9703 80.4063C47.0167 80.4311 47.0822 80.4673 47.1624 80.515C47.3224 80.6102 47.5418 80.7515 47.7833 80.9381C48.2617 81.3079 48.8458 81.8704 49.2122 82.622C49.5997 83.3768 49.6815 84.1729 49.6711 84.7677C49.6659 85.0675 49.6371 85.3218 49.6095 85.5022C49.5956 85.5926 49.582 85.6649 49.5715 85.7157C49.5663 85.741 49.5619 85.7611 49.5586 85.7753L49.5546 85.7922L49.5534 85.7974L49.553 85.7991L49.5528 85.7997L49.5527 85.8C49.5527 85.8001 49.5527 85.8002 49.2132 85.715M46.7399 80.6812L46.8928 80.3663L46.498 80.1746L46.399 80.6022L46.7399 80.6812ZM49.2132 85.715L49.5527 85.8002L49.4478 86.218L49.0603 86.0298L49.2132 85.715Z" fill="#E8C513" stroke="#E8C513" stroke-width="0.7"/>
<path d="M53.2547 92.6553L52.9983 92.8937L53.2919 93.2094L53.5406 92.8572L53.2547 92.6553ZM53.2547 92.6553C53.5406 92.8572 53.5406 92.8571 53.5407 92.857L53.5409 92.8568L53.5412 92.8563L53.5422 92.8549L53.5451 92.8507L53.5549 92.8364C53.5631 92.8244 53.5745 92.8073 53.5886 92.7855C53.6169 92.7419 53.6563 92.6792 53.7028 92.5996C53.7957 92.4408 53.9179 92.2134 54.0374 91.9357C54.2747 91.3844 54.5109 90.6135 54.4679 89.7773C54.4247 88.9391 54.1031 88.1979 53.8035 87.6762C53.6526 87.4134 53.5043 87.2009 53.393 87.0534C53.3372 86.9795 53.2906 86.9216 53.2571 86.8814C53.2404 86.8613 53.227 86.8456 53.2174 86.8345L53.206 86.8214L53.2025 86.8175L53.2014 86.8163L53.201 86.8158L53.2008 86.8156C53.2007 86.8155 53.2006 86.8154 52.9406 87.0497M53.2547 92.6553C52.9983 92.8937 52.9983 92.8936 52.9982 92.8935L52.998 92.8933L52.9976 92.8928L52.9964 92.8915L52.9928 92.8877L52.9812 92.8748C52.9715 92.8639 52.9579 92.8485 52.9411 92.8288C52.9074 92.7893 52.8605 92.7325 52.8045 92.6599C52.6927 92.5148 52.5438 92.3055 52.3924 92.0444C52.0916 91.5254 51.7704 90.7841 51.7274 89.9275C51.6844 89.0914 51.9205 88.3205 52.1578 87.7693C52.2774 87.4916 52.3996 87.2642 52.4925 87.1054C52.539 87.0258 52.5783 86.9631 52.6066 86.9195C52.6208 86.8977 52.6322 86.8806 52.6404 86.8686L52.6501 86.8544L52.6531 86.8501L52.654 86.8487L52.6544 86.8482L52.6545 86.848C52.6546 86.8479 52.6547 86.8478 52.9406 87.0497M52.9406 87.0497L53.2006 86.8154L52.9074 86.4899L52.6547 86.8478L52.9406 87.0497ZM53.5114 92.4174C53.5114 92.4175 53.5114 92.4175 53.5113 92.4174L53.5114 92.4174ZM53.2268 87.2512C53.2268 87.2511 53.2268 87.2511 53.2268 87.2511L53.2268 87.2512Z" fill="#E8C513" stroke="#E8C513" stroke-width="0.7"/>
<path d="M52.2744 93.0339L52.2108 93.3781L52.6349 93.4565L52.6243 93.0253L52.2744 93.0339ZM52.2744 93.0339C52.2108 93.3781 52.2107 93.3781 52.2106 93.378L52.2103 93.378L52.2097 93.3779L52.208 93.3776L52.2028 93.3766L52.1855 93.3731C52.1709 93.3701 52.1504 93.3658 52.1244 93.3599C52.0724 93.3481 51.9987 93.3303 51.9077 93.3052C51.7261 93.255 51.474 93.1755 51.1883 93.0569C50.6211 92.8215 49.8993 92.4232 49.34 91.7755C48.7815 91.1288 48.4978 90.376 48.3526 89.7968C48.2796 89.5055 48.2404 89.2531 48.2194 89.0724C48.2088 88.9818 48.2028 88.9089 48.1994 88.8575C48.1977 88.8319 48.1966 88.8115 48.196 88.7971L48.1953 88.7798L48.1951 88.7746L48.1951 88.7729L48.195 88.7723L48.195 88.772C48.195 88.7719 48.195 88.7718 48.5449 88.7632M52.2744 93.0339C52.6243 93.0253 52.6243 93.0252 52.6243 93.0251L52.6243 93.0248L52.6243 93.0242L52.6243 93.0225L52.6241 93.0173L52.6234 93C52.6228 92.9856 52.6217 92.9653 52.62 92.9396C52.6166 92.8882 52.6106 92.8153 52.6 92.7247C52.579 92.544 52.5398 92.2916 52.4667 92.0003C52.3215 91.4211 52.0378 90.6683 51.4794 90.0216C50.9201 89.3739 50.1983 88.9756 49.6311 88.7402C49.3454 88.6216 49.0933 88.5421 48.9116 88.4919C48.8206 88.4668 48.7469 88.449 48.695 88.4372C48.669 88.4313 48.6485 88.427 48.6339 88.424L48.6165 88.4205L48.6114 88.4195L48.6097 88.4192L48.6091 88.4191L48.6088 88.4191C48.6087 88.419 48.6086 88.419 48.5449 88.7632M48.5449 88.7632L48.6086 88.419L48.1845 88.3406L48.195 88.7718L48.5449 88.7632Z" fill="#E8C513" stroke="#E8C513" stroke-width="0.7"/>
<path d="M58.9831 97.1932C59.3281 97.2524 59.3281 97.2523 59.3281 97.2522L59.3282 97.252L59.3283 97.2513L59.3286 97.2497L59.3294 97.2445L59.3321 97.2275C59.3342 97.2131 59.3372 97.1928 59.3405 97.1671C59.3472 97.1157 59.3557 97.0424 59.3632 96.9509C59.3783 96.7682 59.39 96.5114 59.377 96.2105C59.3511 95.613 59.227 94.8188 58.8175 94.0862L58.8176 94.0862L58.8137 94.0795C58.3863 93.353 57.7735 92.823 57.2794 92.478C57.0307 92.3044 56.8077 92.1746 56.6459 92.0878C56.5648 92.0443 56.4988 92.0114 56.4522 91.989C56.4289 91.9778 56.4104 91.9692 56.3973 91.9632L56.3817 91.9562L56.377 91.9541L56.3755 91.9535L56.3749 91.9532L56.3747 91.9531C56.3746 91.9531 56.3745 91.953 56.235 92.274M58.9831 97.1932C58.8536 97.5184 58.8535 97.5183 58.8534 97.5183L58.8531 97.5182L58.8525 97.518L58.8509 97.5173L58.846 97.5153L58.8298 97.5086C58.8162 97.5028 58.7971 97.4946 58.7731 97.4839C58.725 97.4624 58.6571 97.4308 58.574 97.3887C58.4081 97.3046 58.18 97.1779 57.9273 97.0059C57.4259 96.6644 56.8088 96.1313 56.3996 95.3792C55.991 94.6472 55.867 93.8538 55.8412 93.2568C55.8282 92.9559 55.8398 92.6991 55.8549 92.5164C55.8625 92.4249 55.8709 92.3516 55.8776 92.3002C55.881 92.2745 55.8839 92.2542 55.8861 92.2398L55.8887 92.2227L55.8896 92.2176L55.8899 92.216L55.89 92.2153L55.89 92.2151C55.89 92.215 55.89 92.2149 56.235 92.274M58.9831 97.1932L59.3281 97.2524L59.255 97.6783L58.8536 97.5184L58.9831 97.1932ZM56.235 92.274L55.89 92.2149L55.9655 91.7753L56.3745 91.953L56.235 92.274ZM56.5801 92.3327L56.58 92.3328L56.5801 92.3327Z" fill="#E8C513" stroke="#E8C513" stroke-width="0.7"/>
<path d="M58.2811 97.9524L58.3694 98.2911L58.7924 98.1809L58.5923 97.7923L58.2811 97.9524ZM58.2811 97.9524C58.3694 98.2911 58.3693 98.2912 58.3692 98.2912L58.3689 98.2912L58.3683 98.2914L58.3666 98.2918L58.3615 98.2931L58.3444 98.2973C58.3299 98.3008 58.3095 98.3055 58.2836 98.3112C58.2318 98.3225 58.1577 98.3374 58.065 98.353C57.8797 98.3842 57.6183 98.4182 57.309 98.4308C56.6945 98.4559 55.8695 98.3973 55.0763 98.0432C54.2861 97.6906 53.6965 97.1351 53.3081 96.6773C53.1129 96.4472 52.9656 96.2383 52.8664 96.0858C52.8167 96.0094 52.7789 95.9469 52.753 95.9026C52.7401 95.8804 52.7301 95.8627 52.7231 95.8501L52.7149 95.835L52.7124 95.8305L52.7116 95.8289L52.7113 95.8284L52.7112 95.8281C52.7111 95.828 52.7111 95.8279 53.0205 95.6644M58.2811 97.9524C58.5923 97.7923 58.5923 97.7922 58.5922 97.792L58.5921 97.7918L58.5918 97.7912L58.591 97.7897L58.5885 97.785L58.5803 97.7696C58.5733 97.7567 58.5633 97.7386 58.5504 97.7158C58.5245 97.6704 58.4867 97.6064 58.4371 97.5284C58.3378 97.3727 58.1903 97.1597 57.9947 96.9266C57.6065 96.4641 57.0155 95.9063 56.2218 95.572C55.4296 95.2194 54.6062 95.1609 53.9926 95.186C53.6833 95.1986 53.4219 95.2326 53.2367 95.2638C53.1439 95.2794 53.0698 95.2943 53.018 95.3056C52.9921 95.3113 52.9717 95.316 52.9573 95.3195L52.9401 95.3237L52.935 95.325L52.9333 95.3254L52.9327 95.3256L52.9325 95.3256C52.9323 95.3257 52.9322 95.3257 53.0205 95.6644M53.0205 95.6644L52.9322 95.3257L52.5045 95.4372L52.7111 95.8279L53.0205 95.6644ZM53.3297 95.5003L53.3297 95.5003L53.3297 95.5003Z" fill="#E8C513" stroke="#E8C513" stroke-width="0.7"/>
<path d="M65.7369 99.7862C66.0783 99.7091 66.0783 99.709 66.0783 99.7088L66.0782 99.7086L66.0781 99.708L66.0777 99.7063L66.0765 99.7013L66.0725 99.6846C66.069 99.6706 66.064 99.6509 66.0573 99.6261C66.0439 99.5764 66.0238 99.506 65.9959 99.4192C65.9401 99.2458 65.8528 99.0054 65.7252 98.7324C65.4717 98.1896 65.0512 97.5004 64.3877 96.9599L64.3877 96.9598L64.3824 96.9557C63.7182 96.4354 62.9469 96.1717 62.3551 96.0367C62.0571 95.9688 61.7991 95.9322 61.6145 95.9126C61.522 95.9027 61.4476 95.8971 61.3954 95.8939C61.3693 95.8923 61.3486 95.8913 61.3341 95.8907L61.3168 95.8901L61.3116 95.8899L61.3099 95.8899L61.3093 95.8899L61.3091 95.8898C61.309 95.8898 61.3089 95.8898 61.3008 96.2397M65.7369 99.7862C65.7288 100.136 65.7287 100.136 65.7286 100.136L65.7284 100.136L65.7278 100.136L65.7261 100.136L65.7209 100.136L65.7036 100.135C65.689 100.135 65.6684 100.134 65.6423 100.132C65.5901 100.129 65.5157 100.123 65.4232 100.113C65.2386 100.094 64.9806 100.057 64.6826 99.9892C64.0908 99.8543 63.3195 99.5906 62.6553 99.0703L62.65 99.0661L62.65 99.0661C61.9865 98.5255 61.566 97.8363 61.3125 97.2935C61.1849 97.0205 61.0976 96.7801 61.0418 96.6067C61.0139 96.5199 60.9938 96.4495 60.9804 96.3999C60.9737 96.3751 60.9687 96.3554 60.9652 96.3414L60.9612 96.3247L60.96 96.3197L60.9596 96.318L60.9595 96.3174L60.9594 96.3171C60.9594 96.317 60.9594 96.3169 61.3008 96.2397M65.7369 99.7862L66.0783 99.7091L66.1772 100.146L65.7288 100.136L65.7369 99.7862ZM61.3008 96.2397L60.9594 96.3169L60.8605 95.8795L61.3089 95.8898L61.3008 96.2397Z" fill="#E8C513" stroke="#E8C513" stroke-width="0.7"/>
<path d="M65.3468 100.74L65.5502 101.024L65.9155 100.763L65.5735 100.473L65.3468 100.74ZM65.3468 100.74C65.5502 101.024 65.5502 101.024 65.5501 101.024L65.5499 101.025L65.5493 101.025L65.5479 101.026L65.5437 101.029L65.5293 101.039C65.5172 101.047 65.5001 101.059 65.4782 101.073C65.4344 101.102 65.3714 101.142 65.2914 101.189C65.1316 101.283 64.9026 101.407 64.6219 101.528C64.065 101.768 63.285 102.007 62.429 101.966C61.5688 101.944 60.8075 101.633 60.2707 101.337C60 101.188 59.7812 101.04 59.6292 100.928C59.5531 100.873 59.4934 100.826 59.452 100.792C59.4313 100.775 59.4151 100.762 59.4037 100.752L59.3902 100.741L59.3862 100.737L59.3848 100.736L59.3844 100.736L59.3842 100.735C59.3841 100.735 59.384 100.735 59.6152 100.473M65.3468 100.74C65.5735 100.473 65.5734 100.473 65.5733 100.473L65.5731 100.473L65.5726 100.472L65.5713 100.471L65.5674 100.468L65.5539 100.457C65.5426 100.447 65.5264 100.434 65.5058 100.418C65.4644 100.386 65.4049 100.34 65.329 100.286C65.1773 100.178 64.959 100.035 64.6891 99.8884C64.1528 99.5979 63.3938 99.2877 62.5373 99.2461C61.6797 99.2044 60.898 99.4434 60.3402 99.6842C60.0595 99.8054 59.8305 99.9292 59.6707 100.023C59.5907 100.07 59.5277 100.11 59.4839 100.139C59.462 100.153 59.4448 100.165 59.4327 100.173L59.4184 100.183L59.4141 100.186L59.4127 100.187L59.4122 100.188L59.412 100.188C59.4119 100.188 59.4118 100.188 59.6152 100.473M59.6152 100.473L59.384 100.735L59.053 100.444L59.4118 100.188L59.6152 100.473Z" fill="#E8C513" stroke="#E8C513" stroke-width="0.7"/>
<path d="M63.3076 58.6406L62.9783 58.522L62.8325 58.9266L63.2584 58.9871L63.3076 58.6406ZM63.3076 58.6406C63.2584 58.9871 63.2585 58.9871 63.2586 58.9872L63.2588 58.9872L63.2595 58.9873L63.2612 58.9875L63.2664 58.9882L63.2836 58.9904C63.2981 58.9922 63.3185 58.9945 63.3445 58.9971C63.3963 59.0023 63.4702 59.0086 63.5625 59.0134C63.7468 59.0229 64.0059 59.0267 64.3102 59.0039C64.9153 58.9587 65.7187 58.8074 66.4674 58.371C67.2186 57.9332 67.7359 57.3033 68.0628 56.7943C68.2271 56.5384 68.346 56.3088 68.4243 56.142C68.4635 56.0585 68.4927 55.9903 68.5124 55.9421C68.5223 55.918 68.5298 55.8988 68.5351 55.8851L68.5413 55.8688L68.5431 55.8638L68.5437 55.8621L68.5439 55.8615L68.544 55.8613C68.544 55.8612 68.5441 55.8611 68.2148 55.7424M63.3076 58.6406C62.9783 58.522 62.9784 58.5219 62.9784 58.5217L62.9785 58.5215L62.9787 58.5209L62.9793 58.5192L62.9812 58.5143L62.9873 58.4979C62.9926 58.4842 63.0001 58.4651 63.01 58.4409C63.0297 58.3927 63.0589 58.3246 63.0981 58.241C63.1764 58.0743 63.2953 57.8447 63.4597 57.5887C63.7865 57.0797 64.3038 56.4498 65.055 56.012C65.8037 55.5757 66.6071 55.4243 67.2122 55.3791C67.5165 55.3563 67.7757 55.3601 67.96 55.3696C68.0522 55.3744 68.1261 55.3807 68.178 55.3859C68.2039 55.3885 68.2243 55.3908 68.2388 55.3926L68.2561 55.3948L68.2612 55.3955L68.2629 55.3957L68.2636 55.3958L68.2638 55.3959C68.264 55.3959 68.2641 55.3959 68.2148 55.7424M68.2148 55.7424L68.5441 55.8611L68.6899 55.4564L68.2641 55.3959L68.2148 55.7424ZM63.6367 58.7598C63.6367 58.7599 63.6367 58.7599 63.6367 58.7598L63.6367 58.7598Z" fill="#E8C513" stroke="#E8C513" stroke-width="0.7"/>
</g>
<defs>
<filter id="filter0_d" x="0.408203" y="0.993652" width="199.856" height="257.744" filterUnits="userSpaceOnUse" color-interpolation-filters="sRGB">
<feFlood flood-opacity="0" result="BackgroundImageFix"/>
<feColorMatrix in="SourceAlpha" type="matrix" values="0 0 0 0 0 0 0 0 0 0 0 0 0 0 0 0 0 0 127 0"/>
<feOffset dx="8" dy="2"/>
<feGaussianBlur stdDeviation="15"/>
<feColorMatrix type="matrix" values="0 0 0 0 0.183333 0 0 0 0 0.183333 0 0 0 0 0.183333 0 0 0 0.15 0"/>
<feBlend mode="normal" in2="BackgroundImageFix" result="effect1_dropShadow"/>
<feBlend mode="normal" in="SourceGraphic" in2="effect1_dropShadow" result="shape"/>
</filter>
</defs>
</svg>
