<svg width="273" height="202" viewBox="0 0 273 202" fill="none" xmlns="http://www.w3.org/2000/svg">
<g filter="url(#filter0_d)">
<rect x="19.6885" y="24.6866" width="219.94" height="149.541" fill="#325487"/>
<path d="M228.896 80.187L224.545 72.4788V46.4638C224.545 43.5732 222.804 41.6462 220.194 41.6462H210.621C203.66 35.8651 194.958 32.011 186.256 32.011H72.2591C63.5571 32.011 54.8551 35.8651 47.8934 41.6462H38.3212C35.7106 41.6462 33.9702 43.5732 33.9702 46.4638V72.4788L29.6192 80.187C23.5277 91.7492 23.5277 107.165 28.749 118.728L33.9702 131.253V152.451C33.9702 155.341 35.7106 157.269 38.3212 157.269H49.6339C56.5955 163.05 65.2975 166.904 73.9995 166.904H185.386C194.088 166.904 202.79 163.05 209.751 157.269H221.064C223.675 157.269 225.415 155.341 225.415 152.451V131.253L230.636 118.728C235.857 106.202 234.987 91.7492 228.896 80.187Z" fill="#B8D4DE"/>
<path d="M99.2278 68.8444H90.5646V64.6313C90.5646 62.2929 88.637 60.4181 86.233 60.4181H77.5697C75.1656 60.4181 73.2381 62.2929 73.2381 64.6313V68.8444H64.5748C62.1707 68.8444 60.2648 70.7193 60.2648 73.0576L60.2432 96.23C60.2432 98.5683 62.1707 100.443 64.5748 100.443H99.2278C101.632 100.443 103.559 98.5683 103.559 96.23V73.0576C103.559 70.7193 101.632 68.8444 99.2278 68.8444ZM86.233 68.8444H77.5697V64.6313H86.233V68.8444Z" fill="#325487"/>
<path d="M150.936 73.9667H193.979" stroke="#325487" stroke-width="6.58" stroke-miterlimit="10" stroke-linecap="round"/>
<path d="M120.759 91.4022H193.978" stroke="#325487" stroke-width="6.58" stroke-miterlimit="10" stroke-linecap="round"/>
<path d="M120.759 108.838H193.978" stroke="#325487" stroke-width="6.58" stroke-miterlimit="10" stroke-linecap="round"/>
<path d="M120.759 126.273H193.978" stroke="#325487" stroke-width="6.58" stroke-miterlimit="10" stroke-linecap="round"/>
<path d="M70.8641 138.69L70.8641 174.228L82.2363 167.12L93.6084 174.228L93.6084 138.69L70.8641 138.69Z" fill="#EFD358"/>
<path d="M82.2365 151.484C82.6004 151.484 82.9643 151.344 83.2415 151.067L88.511 145.798L96.4516 145.798C97.2377 145.798 97.8731 145.162 97.8731 144.376L97.8731 136.436L103.143 131.166C103.699 130.61 103.699 129.712 103.143 129.156L97.8731 123.886L97.8731 115.946C97.8731 115.16 97.2377 114.524 96.4516 114.524L88.511 114.524L83.2415 109.255C82.6857 108.699 81.7873 108.699 81.2314 109.255L75.9619 114.524L68.0213 114.524C67.2352 114.524 66.5998 115.16 66.5998 115.946L66.5998 123.886L61.3302 129.156C60.7744 129.712 60.7744 130.61 61.3302 131.166L66.5998 136.436L66.5998 144.376C66.5998 145.162 67.2352 145.798 68.0213 145.798L75.9619 145.798L81.2314 151.067C81.5086 151.344 81.8725 151.484 82.2365 151.484Z" fill="#E86C60"/>
<circle r="8.52911" transform="matrix(-1 8.74228e-08 8.74228e-08 1 82.2365 130.161)" fill="#AA3333"/>
</g>
<defs>
<filter id="filter0_d" x="0.789616" y="0.63355" width="271.482" height="201.084" filterUnits="userSpaceOnUse" color-interpolation-filters="sRGB">
<feFlood flood-opacity="0" result="BackgroundImageFix"/>
<feColorMatrix in="SourceAlpha" type="matrix" values="0 0 0 0 0 0 0 0 0 0 0 0 0 0 0 0 0 0 127 0"/>
<feOffset dx="6.87231" dy="1.71808"/>
<feGaussianBlur stdDeviation="12.8856"/>
<feColorMatrix type="matrix" values="0 0 0 0 0.0458333 0 0 0 0 0.0458333 0 0 0 0 0.0458333 0 0 0 0.15 0"/>
<feBlend mode="normal" in2="BackgroundImageFix" result="effect1_dropShadow"/>
<feBlend mode="normal" in="SourceGraphic" in2="effect1_dropShadow" result="shape"/>
</filter>
</defs>
</svg>
