<svg width="228" height="166" viewBox="0 0 228 166" fill="none" xmlns="http://www.w3.org/2000/svg">
<g filter="url(#filter0_d)">
<path d="M189.561 37.0361L189.39 126.002C189.561 130.239 185.974 133.811 181.277 133.977L30.4551 133.644C25.7579 133.395 22.171 129.823 22.3418 125.587L22.5126 36.7038C22.4272 32.4674 26.0141 28.8954 30.7113 28.6462L181.533 28.9785C186.145 29.2277 189.732 32.7996 189.561 37.0361Z" fill="url(#paint0_linear)"/>
<mask id="mask0" mask-type="alpha" maskUnits="userSpaceOnUse" x="22" y="28" width="168" height="106">
<path d="M189.561 37.0361L189.39 126.002C189.561 130.239 185.974 133.811 181.277 133.977L30.4551 133.644C25.7579 133.395 22.171 129.823 22.3418 125.587L22.5126 36.7038C22.4272 32.4674 26.0141 28.8954 30.7113 28.6462L181.533 28.9785C186.145 29.2277 189.732 32.7996 189.561 37.0361Z" fill="url(#paint1_linear)"/>
</mask>
<g mask="url(#mask0)">
<path d="M151.215 143.198C153.264 142.782 155.314 142.284 157.278 141.536C150.531 147.766 141.906 152.003 132.426 153.913C104.499 159.313 77.3409 141.37 71.8751 113.792C66.4092 86.2129 84.6001 59.382 112.527 53.9825C121.836 52.1551 131.487 52.9027 140.283 56.1423C138.148 56.2254 136.098 56.4746 134.049 56.8899C109.88 61.5417 94.0799 84.7177 98.8625 108.558C103.645 132.316 127.046 147.849 151.215 143.198Z" fill="#F27C8B"/>
<path d="M138.661 67.6887L142.418 75.0819L150.617 73.0883L144.639 78.9862L148.994 86.0472L141.564 82.226L136.099 88.5393L137.465 80.3984L129.693 77.1587L137.977 75.9126L138.661 67.6887Z" fill="#F27C8B"/>
<path d="M121.75 86.1296L125.593 93.5227L133.706 91.6122L127.814 97.4269L132.169 104.488L124.654 100.75L119.273 107.063L120.554 98.8391L112.868 95.6825L121.152 94.4365L121.75 86.1296Z" fill="#F27C8B"/>
<path d="M134.476 106.814L138.234 114.207L146.433 112.296L140.454 118.111L144.81 125.172L137.38 121.351L131.914 127.664L133.28 119.523L125.509 116.367L133.793 115.037L134.476 106.814Z" fill="#F27C8B"/>
<path d="M159.244 101.996L163.001 109.389L171.115 107.478L165.222 113.293L169.578 120.354L162.147 116.616L156.682 122.846L157.963 114.705L150.276 111.549L158.561 110.303L159.244 101.996Z" fill="#F27C8B"/>
<path d="M163.001 78.155L166.844 85.5481L174.957 83.6375L168.979 89.4523L173.42 96.5131L165.904 92.692L160.438 99.0052L161.805 90.8645L154.033 87.7079L162.317 86.3788L163.001 78.155Z" fill="#F27C8B"/>
</g>
<path d="M189.562 37.0361V48.8317L22.4283 48.4163V36.6207C22.3428 32.3843 25.9298 28.8954 30.627 28.6462L181.449 28.9785C186.146 29.1446 189.733 32.7166 189.562 37.0361Z" fill="#168293"/>
</g>
<defs>
<filter id="filter0_d" x="0.335938" y="0.64624" width="227.232" height="165.33" filterUnits="userSpaceOnUse" color-interpolation-filters="sRGB">
<feFlood flood-opacity="0" result="BackgroundImageFix"/>
<feColorMatrix in="SourceAlpha" type="matrix" values="0 0 0 0 0 0 0 0 0 0 0 0 0 0 0 0 0 0 127 0"/>
<feOffset dx="8" dy="2"/>
<feGaussianBlur stdDeviation="15"/>
<feColorMatrix type="matrix" values="0 0 0 0 0.116667 0 0 0 0 0.116667 0 0 0 0 0.116667 0 0 0 0.2 0"/>
<feBlend mode="normal" in2="BackgroundImageFix" result="effect1_dropShadow"/>
<feBlend mode="normal" in="SourceGraphic" in2="effect1_dropShadow" result="shape"/>
</filter>
<linearGradient id="paint0_linear" x1="8.62911" y1="81.3319" x2="272.427" y2="81.3319" gradientUnits="userSpaceOnUse">
<stop stop-color="#4FCEEB"/>
<stop offset="0.7093" stop-color="#4BC7A0"/>
</linearGradient>
<linearGradient id="paint1_linear" x1="8.62911" y1="81.3319" x2="272.427" y2="81.3319" gradientUnits="userSpaceOnUse">
<stop stop-color="#3FAFC9"/>
<stop offset="0.7093" stop-color="#4BC7A0"/>
</linearGradient>
</defs>
</svg>
