<svg width="200" height="50" viewBox="0 0 200 50" fill="none" xmlns="http://www.w3.org/2000/svg">
<rect width="200" height="50" rx="4" fill="#EE293A"/>
<path d="M12.448 37.5V12.5H23.568C26.128 12.5 28.248 12.98 29.928 13.94C31.608 14.884 32.848 16.24 33.648 18.008C34.464 19.76 34.872 21.848 34.872 24.272C34.872 26.696 34.464 28.784 33.648 30.536C32.848 32.272 31.608 33.628 29.928 34.604C28.248 35.564 26.128 36.044 23.568 36.044H15.912V27.67H22.992C23.952 27.67 24.752 27.464 25.392 27.052C26.048 26.624 26.544 26.012 26.88 25.216C27.216 24.42 27.384 23.5 27.384 22.456C27.384 21.412 27.216 20.492 26.88 19.696C26.544 18.884 26.048 18.268 25.392 17.848C24.752 17.412 23.952 17.2 22.992 17.2H15.912V37.5H12.448ZM15.912 32.612H23.496C25.344 32.612 26.88 32.108 28.104 31.1C29.344 30.076 30.216 28.66 30.72 26.852H15.912V32.612Z" fill="white"/>
<path d="M43.328 37.5V12.5H46.792V37.5H43.328Z" fill="white"/>
<path d="M51.816 37.5V12.5H62.904C64.92 12.5 66.576 12.86 67.872 13.58C69.184 14.284 70.164 15.308 70.812 16.652C71.46 17.98 71.784 19.556 71.784 21.38C71.784 23.444 71.292 25.268 70.308 26.852C69.34 28.42 68.012 29.624 66.324 30.464L72.288 37.5H68.256L63.096 30.836H55.28V37.5H51.816ZM55.28 27.404H62.832C64.032 27.404 65.028 27.02 65.82 26.252C66.628 25.468 67.032 24.388 67.032 23.012C67.032 21.636 66.628 20.556 65.82 19.772C65.028 18.972 64.032 18.572 62.832 18.572H55.28V27.404Z" fill="white"/>
<path d="M77.424 37.5V12.5H89.592V15.764H80.888V23.036H88.512V26.3H80.888V37.5H77.424Z" fill="white"/>
<path d="M94.684 37.5V12.5H106.852V15.764H98.148V23.036H105.772V26.3H98.148V37.5H94.684Z" fill="white"/>
<path d="M117.784 38C114.904 38 112.528 37.28 110.656 35.84C108.8 34.384 107.872 32.4 107.872 29.888C107.872 27.376 108.8 25.392 110.656 23.936C112.528 22.464 114.904 21.728 117.784 21.728C119.536 21.728 121.1 22.024 122.476 22.616C123.868 23.192 125.02 24.02 125.932 25.099L123.676 27.188C123.028 26.38 122.259 25.796 121.363 25.436C120.484 25.06 119.464 24.872 118.304 24.872C116.624 24.872 115.304 25.34 114.344 26.276C113.4 27.196 112.928 28.408 112.928 29.912C112.928 31.432 113.4 32.66 114.344 33.596C115.304 34.516 116.624 34.976 118.304 34.976C119.464 34.976 120.484 34.784 121.363 34.4C122.259 34.016 123.012 33.452 123.62 32.708L125.86 34.832C124.948 35.909 123.796 36.74 122.404 37.324C121.028 37.804 119.464 38 117.784 38Z" fill="white"/>
<path d="M130.872 37.5V12.5H134.336V37.5H130.872Z" fill="white"/>
<path d="M149.884 37.5L144.332 30.08L138.748 37.5H134.836L142.3 27.152L135.532 12.5H139.564L144.436 21.332L149.276 12.5H153.276L146.476 27.224L153.948 37.5H149.884Z" fill="white"/>
<path d="M158.428 37.5V12.5H172.9V15.764H161.892V23.036H171.828V26.3H161.892V34.268H173.244V37.5H158.428Z" fill="white"/>
</svg>
