<svg width="102" height="18" viewBox="0 0 102 18" fill="none" xmlns="http://www.w3.org/2000/svg">
<path d="M11.956 10.932C11.956 10.224 12.016 9.576 12.136 8.988H6.556V11.832H9.724C9.58 12.744 8.908 13.908 7.744 14.676L7.732 14.748L9.892 16.32C11.236 15.06 11.956 13.164 11.956 10.932Z" fill="#C5192D"/>
<path d="M5.89589 18C7.62389 18 9.12389 17.436 10.2759 16.428L8.12789 14.868C7.57589 15.228 6.80789 15.54 5.89589 15.54C4.21589 15.54 2.82389 14.472 2.33189 13.044L2.24789 13.056L0.123889 14.688C1.26389 16.716 3.41189 18 5.89589 18Z" fill="#1A73E8"/>
<path d="M2.796 10.764C2.676 10.404 2.616 10.02 2.616 9.612C2.616 9.204 2.676 8.82 2.796 8.46L2.796 8.328L0.564 6.588C0.216 7.5 0 8.532 0 9.612C0 10.692 0.216 11.724 0.576 12.648L2.796 10.764Z" fill="#FABC04"/>
<path d="M5.89589 3.49199C6.91589 3.49199 7.71989 3.86399 8.35589 4.46399L10.3239 2.51999C9.11189 1.42799 7.62389 0.887988 5.89589 0.887988C3.41189 0.887988 1.26389 2.29199 0.123889 4.31999L2.34389 6.20399C2.82389 4.77599 4.21589 3.49199 5.89589 3.49199Z" fill="#1A73E8"/>
<g clip-path="url(#clip0_10_2)">
<path d="M31.298 9.08399L34.194 0.383988H36.794L32.846 11.532L32.798 11.66H31.79L27.842 0.383988H30.458L31.298 9.08399Z" fill="#C5192D"/>
<path d="M47.786 8.996C47.786 10.46 47.33 11.456 46.418 11.984C45.518 12.5 44.33 12.764 42.854 12.764H38.03V0.383988H42.854C44.33 0.383988 45.518 0.647988 46.418 1.17599C47.33 1.69199 47.786 2.68799 47.786 4.16399C47.786 5.09999 47.498 5.85199 46.922 6.41999C46.358 6.97599 45.482 7.28399 44.294 7.34399V7.41599C45.926 7.48799 47.018 7.97999 47.558 8.89199L47.786 8.996ZM42.854 2.45999H40.298V5.37599H42.854C43.838 5.37599 44.33 4.93199 44.33 4.04399C44.33 3.14399 43.838 2.69999 42.854 2.45999ZM42.854 9.68399C43.91 9.68399 44.402 9.23999 44.402 8.35199C44.402 7.46399 43.91 7.01999 42.854 7.01999H40.298V9.68399H42.854Z" fill="#C5192D"/>
<path d="M57.6539 0.383988V12.38H55.0619V0.383988H57.6539Z" fill="#C5192D"/>
<path d="M72.0139 0.383988H74.6059V12.38H72.0139V0.383988Z" fill="#C5192D"/>
<path d="M83.824 12.608C82.852 12.608 82.024 12.44 81.34 12.104C80.668 11.768 80.194 11.24 79.918 10.52L82.192 9.536C82.348 9.944 82.684 10.256 83.2 10.472C83.728 10.676 84.184 10.724 84.568 10.628C85.228 10.448 85.558 10.064 85.558 9.476C85.558 9.044 85.342 8.708 84.91 8.468C84.49 8.228 83.542 7.916 82.066 7.532C80.206 7.052 79.03 6.44 78.538 5.696C78.058 4.94 77.818 3.992 77.818 2.852C77.818 2.06 78.01 1.4 78.394 0.871988C78.79 0.343988 79.378 0 80.158 0C80.89 0 81.526 0.179988 82.066 0.539988C82.618 0.887988 83.038 1.364 83.326 1.964L81.022 2.9C80.89 2.576 80.662 2.348 80.338 2.216C80.026 2.084 79.726 2.06 79.438 2.144C78.898 2.276 78.628 2.588 78.628 2.984C78.628 3.332 78.79 3.608 79.114 3.812C79.438 4.004 80.23 4.256 81.49 4.568C83.278 5.012 84.442 5.54 84.982 6.152C85.534 6.764 85.81 7.58 85.81 8.6C85.81 9.5 85.57 10.22 85.09 10.76C84.622 11.288 83.926 11.696 83.002 11.984C83.47 12.368 83.998 12.56 84.586 12.56C85.294 12.56 85.906 12.38 86.422 12.02L87.202 14.12C86.434 14.54 85.522 14.756 84.466 14.756C82.882 14.756 81.586 14.288 80.578 13.352C81.622 12.824 82.594 12.608 83.824 12.608Z" fill="#C5192D"/>
<path d="M68.8659 8.996C68.8659 10.46 68.4099 11.456 67.5099 11.984C66.5979 12.5 65.4099 12.764 63.9339 12.764H59.1099V0.383988H63.9339C65.4099 0.383988 66.5979 0.647988 67.5099 1.17599C68.4099 1.69199 68.8659 2.68799 68.8659 4.16399C68.8659 5.09999 68.5779 5.85199 67.9959 6.41999C67.4439 6.97599 66.5619 7.28399 65.3739 7.34399V7.41599C67.0059 7.48799 68.0979 7.97999 68.6379 8.89199L68.8659 8.996ZM63.9339 2.45999H61.3779V5.37599H63.9339C64.9179 5.37599 65.4099 4.93199 65.4099 4.04399C65.4099 3.14399 64.9179 2.69999 63.9339 2.45999ZM63.9339 9.68399C64.9899 9.68399 65.4819 9.23999 65.4819 8.35199C65.4819 7.46399 64.9899 7.01999 63.9339 7.01999H61.3779V9.68399H63.9339Z" fill="#C5192D"/>
<path d="M96.088 12.608C95.116 12.608 94.288 12.44 93.604 12.104C92.932 11.768 92.458 11.24 92.182 10.52L94.456 9.536C94.612 9.944 94.948 10.256 95.464 10.472C95.992 10.676 96.448 10.724 96.832 10.628C97.492 10.448 97.822 10.064 97.822 9.476C97.822 9.044 97.606 8.708 97.174 8.468C96.754 8.228 95.806 7.916 94.33 7.532C92.47 7.052 91.294 6.44 90.802 5.696C90.322 4.94 90.082 3.992 90.082 2.852C90.082 2.06 90.274 1.4 90.658 0.871988C91.054 0.343988 91.642 0 92.422 0C93.154 0 93.79 0.179988 94.33 0.539988C94.882 0.887988 95.302 1.364 95.59 1.964L93.286 2.9C93.154 2.576 92.926 2.348 92.602 2.216C92.29 2.084 91.99 2.06 91.702 2.144C91.162 2.276 90.892 2.588 90.892 2.984C90.892 3.332 91.054 3.608 91.378 3.812C91.702 4.004 92.494 4.256 93.754 4.568C95.542 5.012 96.706 5.54 97.246 6.152C97.798 6.764 98.074 7.58 98.074 8.6C98.074 9.5 97.834 10.22 97.354 10.76C96.886 11.288 96.19 11.696 95.266 11.984C95.734 12.368 96.262 12.56 96.85 12.56C97.558 12.56 98.17 12.38 98.686 12.02L99.466 14.12C98.698 14.54 97.786 14.756 96.73 14.756C95.146 14.756 93.85 14.288 92.842 13.352C93.886 12.824 94.858 12.608 96.088 12.608Z" fill="#C5192D"/>
<path d="M25.7519 8.996C25.7519 10.46 25.2959 11.456 24.3959 11.984C23.4839 12.5 22.2959 12.764 20.8199 12.764H15.9959V0.383988H20.8199C22.2959 0.383988 23.4839 0.647988 24.3959 1.17599C25.2959 1.69199 25.7519 2.68799 25.7519 4.16399C25.7519 5.09999 25.4639 5.85199 24.8819 6.41999C24.3299 6.97599 23.4479 7.28399 22.2599 7.34399V7.41599C23.8919 7.48799 24.9839 7.97999 25.5239 8.89199L25.7519 8.996ZM20.8199 2.45999H18.2639V5.37599H20.8199C21.8039 5.37599 22.2959 4.93199 22.2959 4.04399C22.2959 3.14399 21.8039 2.69999 20.8199 2.45999ZM20.8199 9.68399C21.8759 9.68399 22.3679 9.23999 22.3679 8.35199C22.3679 7.46399 21.8759 7.01999 20.8199 7.01999H18.2639V9.68399H20.8199Z" fill="#C5192D"/>
<path d="M101.442 0.383988L98.546 9.08399L95.65 0.383988H93.05L97.01 11.532L97.058 11.66H98.066L102 0.383988H101.442Z" fill="#C5192D"/>
</g>
<defs>
<clipPath id="clip0_10_2">
<rect width="86.112" height="15" fill="white" transform="translate(15.888)"/>
</clipPath>
</defs>
</svg>
